<?xml version="1.0" encoding="UTF-8" standalone="no"?>
<!-- Created with Inkscape (http://www.inkscape.org/) -->
<svg version="1.1" id="svg1" width="39.95874" height="40.044861" viewBox="0 0 39.958741 40.044859"    xmlns="http://www.w3.org/2000/svg" xmlns:svg="http://www.w3.org/2000/svg">
  <defs id="defs1">
    <clipPath clipPathUnits="userSpaceOnUse" id="clipPath66">
      <path d="M 0,770 H 1300 V 0 H 0 Z" transform="translate(-496.82621,-134.2373)" id="path66" />
    </clipPath>
  </defs>
  <g id="layer-MC0"   transform="translate(-643.08129,-821.24046)">
    <path id="path65" d="M 0,0 C -2.151,-0.152 -4.021,-0.023 -4.8,1.199 -5.9,5.207 -0.426,12.471 2.16,9.119 3.45,7.447 1.659,0.432 0,0 m 7.44,11.76 c -1.249,1.299 -2.504,-0.395 -2.879,-1.44 -1.191,1.85 -3.434,2.856 -5.76,2.399 -3.058,-0.6 -7.287,-7.194 -6.481,-11.28 0.454,-2.302 2.555,-2.832 4.08,-4.32 2.413,-0.033 4.141,-0.101 5.52,0.721 1.176,0.699 1.32,1.918 2.4,2.64 0.26,-1.582 1.567,-2.115 2.64,-2.88 10.909,-2.293 9.377,14.277 6,18.48 -4.682,5.826 -17.472,4.039 -22.08,0.24 -0.827,-0.683 -2.836,-3.045 -3.359,-3.84 -2.873,-4.367 -2.699,-12.519 0.479,-17.041 1.687,-2.398 4.882,-4.703 7.2,-5.279 2.545,-0.633 5.46,-0.303 8.16,0 2.82,0.315 6.76,1.307 7.201,4.08 -2.668,2.293 -6.185,-0.367 -9.84,-0.72 -1.982,-0.192 -3.886,0.058 -6,0.24 -3.541,2.892 -6.294,7.752 -5.761,12.48 0.306,2.703 2.657,5.883 4.8,7.44 3.398,2.468 11.296,3.912 15.36,0.959 2.759,-2.004 5.139,-14.95 -1.92,-13.68 -0.508,1.814 -0.737,4.275 -0.479,6.48 0.21,1.799 1.501,3.409 0.719,4.321" style="fill:#000000;fill-opacity:1;fill-rule:evenodd;stroke:none" transform="matrix(1.3333333,0,0,-1.3333333,662.43493,847.6836)" clip-path="url(#clipPath66)" />
  </g>
</svg>
