<?xml version="1.0" encoding="UTF-8" standalone="no"?>
<!-- Created with Inkscape (http://www.inkscape.org/) -->
<svg version="1.1" id="svg1" width="34.481445" height="40.683502" viewBox="0 0 34.481446 40.6835"    xmlns="http://www.w3.org/2000/svg" xmlns:svg="http://www.w3.org/2000/svg">
  <defs id="defs1">
    <clipPath clipPathUnits="userSpaceOnUse" id="clipPath330">
      <path d="M 0,770 H 1300 V 0 H 0 Z" transform="translate(-997.5625,-624.99852)" id="path330" />
    </clipPath>
  </defs>
  <g id="layer-MC0"   transform="translate(-1297.3516,-165.8271)">
    <path id="path329" d="m 0,0 c -0.292,1.57 -0.696,2.8 -2.071,3.462 -5.494,0.21 -9.671,-1.094 -12.991,-2.566 -1.939,-0.859 -4.263,-1.716 -5.614,-3.046 -0.093,-0.71 -0.438,-1.165 -0.802,-1.605 -0.269,-1.416 -0.085,-2.568 0.161,-3.849 -1.172,0.388 -1.373,1.463 -1.284,2.566 0.049,0.591 0.554,1.242 0.642,1.924 0.048,0.364 -0.225,0.687 -0.16,0.964 0.095,0.404 0.464,0.701 0.481,1.122 0.061,1.524 -0.884,3.579 -1.123,5.613 -0.08,0.682 -0.127,1.442 -0.16,2.085 -0.234,4.464 0.707,6.227 3.047,8.179 -0.042,1.878 -0.74,4.731 1.603,4.171 0.468,-1.101 -0.285,-1.669 0,-2.728 0.278,-0.397 0.686,0.033 0.978,0.237 l 0.17,-0.056 c 0.129,-0.926 1.235,-0.724 2.061,-0.821 2.999,-0.353 4.582,-1.132 5.934,-2.887 1.897,-2.462 2.867,-6.318 5.132,-8.18 2.043,-0.082 3.348,-0.902 4.323,-2.05 0.003,-0.02 0,-0.039 0.006,-0.058 C 0.751,1.067 0.643,0.28 0,0 m -18.109,-2.472 c 0.917,1.005 2.881,2.177 3.848,0.963 0.117,-0.146 0.504,-1.104 0.482,-1.444 -0.083,-1.315 -1.974,-2.139 -3.529,-1.122 -0.041,0.761 0.284,1.887 -0.801,1.603 m 11.868,-1.283 c -1.565,-1.12 -4.006,-2.873 -5.613,-3.369 -0.725,-0.221 -1.538,-0.267 -2.247,-0.48 -2.478,-0.742 -7.658,-1.673 -6.414,2.246 0.228,0.719 0.834,1.301 1.283,2.084 0.32,-4.487 7.069,-3.532 7.217,0.16 0.049,1.232 -0.853,1.906 -1.123,3.208 3.008,1.162 6.675,1.665 10.746,1.765 2.547,-2.296 -1.47,-3.911 -3.849,-5.614 M 1.03,2.684 C 1.015,2.736 0.988,2.78 0.954,2.819 c -0.209,2.382 -2.461,1.929 -4.148,3.05 -1.043,0.692 -1.292,2.1 -1.924,3.368 -2.197,4.402 -4.664,8.712 -11.6,7.884 -0.022,0.013 -0.041,0.03 -0.066,0.039 l -0.2,0.067 c 0.038,1.064 -0.003,2.048 -0.324,2.755 -2.66,2.165 -6.037,-1.578 -3.688,-4.01 -1.136,-1.696 -2.928,-2.566 -3.368,-4.972 -0.555,-3.029 0.267,-7.772 0.801,-10.264 0.244,-1.136 0.746,-2.18 0.642,-3.047 -0.124,-1.046 -1.51,-2.648 -1.123,-4.331 0.297,-1.287 2.504,-2.722 4.01,-3.047 2.881,-0.621 5.26,0.412 7.217,0.963 1.16,0.326 2.41,0.387 3.369,0.802 1.728,0.748 3.106,2.107 4.49,3.047 2.088,1.418 4.012,2.336 5.19,4.182 1.611,0.633 0.999,2.699 0.798,3.379" style="fill:#000000;fill-opacity:1;fill-rule:nonzero;stroke:none" transform="matrix(1.3333333,0,0,-1.3333333,1330.0833,193.33533)" clip-path="url(#clipPath330)" />
  </g>
</svg>
