<?xml version="1.0" encoding="UTF-8" standalone="no"?>
<!-- Created with Inkscape (http://www.inkscape.org/) -->
<svg version="1.1" id="svg1" width="39.999512" height="40.422119" viewBox="0 0 39.999513 40.422117"    xmlns="http://www.w3.org/2000/svg" xmlns:svg="http://www.w3.org/2000/svg">
  <defs id="defs1">
    <clipPath clipPathUnits="userSpaceOnUse" id="clipPath242">
      <path d="M 0,770 H 1300 V 0 H 0 Z" transform="translate(-1240.8312,-483.03611)" id="path242" />
    </clipPath>
  </defs>
  <g id="layer-MC0"   transform="translate(-1620.3613,-353.36894)">
    <path id="path241" d="m 0,0 c -3.441,-5.195 -11.323,-6.339 -18.109,-3.242 0.964,1.675 2.668,2.793 4.055,4.054 4.274,3.887 8.546,8.365 13.514,11.894 0.23,0.048 0.254,-0.106 0.271,-0.271 C 1.201,8.225 2.469,3.729 0,0 m -20.813,-0.27 c -2.465,4.366 -2.926,9.949 -0.541,14.327 1.166,2.139 5.938,4.211 9.192,4.324 3.129,0.107 6.599,-1.492 9.189,-2.704 -2.63,-2.946 -5.959,-5.526 -8.92,-8.379 -2.199,-2.117 -4.289,-4.17 -6.756,-6.216 -0.579,-0.479 -1.243,-1.595 -2.164,-1.352 M 3.515,12.706 c -0.374,0.972 -1.494,1.98 -2.703,3.242 -0.972,1.015 -1.966,2.475 -2.974,3.243 -3.681,2.816 -10.695,3.803 -15.947,1.351 -2.812,-1.311 -4.26,-3.996 -6.488,-6.485 -0.349,-3.21 -1.341,-6.48 -0.81,-10.002 0.579,-3.849 3.449,-8.264 5.947,-9.73 1.818,-1.069 7.59,-2.734 9.731,-2.704 4.485,0.063 10.447,3.976 12.163,6.487 2.067,3.028 2.721,10.314 1.081,14.598" style="fill:#000000;fill-opacity:1;fill-rule:evenodd;stroke:none" transform="matrix(1.3333333,0,0,-1.3333333,1654.4415,382.61853)" clip-path="url(#clipPath242)" />
  </g>
</svg>
