<?xml version="1.0" encoding="UTF-8" standalone="no"?>
<!-- Created with Inkscape (http://www.inkscape.org/) -->

<svg
   version="1.1"
   id="svg1"
   width="37.214142"
   height="37.349274"
   viewBox="0 0 37.214143 37.349272"
   xmlns="http://www.w3.org/2000/svg"
   xmlns:svg="http://www.w3.org/2000/svg">
  <defs
     id="defs1">
    <clipPath
       clipPathUnits="userSpaceOnUse"
       id="clipPath270">
      <path
         d="M 0,770 H 1300 V 0 H 0 Z"
         transform="translate(-368.51861,-497.74511)"
         id="path270" />
    </clipPath>
  </defs>
  <g
     id="layer-MC0"
     transform="translate(-481.57137,-354.90511)">
    <path
       id="path269"
       d="M 0,0 C 2.166,0.384 1.263,4.317 0.72,6 -2.373,6.855 -1.6,0.223 0,0 m 17.28,-18 c -1.501,-1.065 -3.428,-0.839 -6,-0.72 -4.979,0.231 -11.273,-1.165 -15.12,0.48 -1.165,2.676 -0.803,8.155 -0.48,11.52 6.492,0.094 15.043,0.606 21.84,-0.24 0.803,-3.375 0.638,-7.816 -0.24,-11.04 M 16.56,2.88 C 15.207,1.317 15.898,-1.944 13.44,-1.44 11.79,-1.102 12.321,0.983 12,2.64 8.955,1.973 5.384,2.702 2.16,2.64 1.512,1.688 2.478,-0.878 1.2,-1.2 0.178,-1.859 -1.229,-1.159 -1.92,-0.72 -1.972,0.589 -1.754,2.165 -2.16,3.12 -7.935,4 -7.394,-1.109 -7.2,-5.521 c 0.169,-3.833 -0.387,-8.809 0,-11.039 1.05,-6.042 7.396,-5.13 13.68,-5.28 4.263,-0.102 9.352,-0.384 12.72,0.96 1.53,1.697 1.109,6.117 0.96,10.561 -0.209,6.234 2.465,14.39 -3.6,13.199 M 13.68,0.239 C 15.926,0.728 16.544,6.408 13.2,6 12.911,4.543 12.48,0.995 13.68,0.239"
       style="fill:#000000;fill-opacity:1;fill-rule:nonzero;stroke:none"
       transform="matrix(1.3333333,0,0,-1.3333333,491.35813,363.00653)"
       clip-path="url(#clipPath270)" />
  </g>
</svg>
