<?xml version="1.0" encoding="UTF-8" standalone="no"?>
<!-- Created with Inkscape (http://www.inkscape.org/) -->
<svg version="1.1" id="svg1" width="38.141357" height="42.666931" viewBox="0 0 38.141358 42.666929"    xmlns="http://www.w3.org/2000/svg" xmlns:svg="http://www.w3.org/2000/svg">
  <defs id="defs1">
    <clipPath clipPathUnits="userSpaceOnUse" id="clipPath16">
      <path d="M 0,770 H 1300 V 0 H 0 Z" transform="translate(-793.20609,-73.400399)" id="path16" />
    </clipPath>
  </defs>
  <g id="layer-MC0"   transform="translate(-1051.196,-913.46562)">
    <path id="path15" d="M 0,0 C 2.799,-1.72 2.754,3.529 1.254,4.601 1.539,5.43 2.226,5.858 2.091,7.108 -0.607,8.81 -1.763,3.498 0,1.882 0.028,1.006 -0.381,0.715 0,0 m 20.279,-8.78 c -0.194,-1.261 -2.137,-1.281 -4.181,-1.254 0.018,1.202 0.046,2.414 -0.209,3.345 2.03,-0.331 4.668,-0.29 4.39,-2.091 M 3.763,-17.143 c -3.301,1.392 -5.585,7.282 -6.899,11.29 4.795,-1.198 11.549,-0.437 16.307,-1.672 0.578,-5.644 -3.835,-11.966 -9.408,-9.618 m 19.652,10.454 c -1.081,2.84 -5.527,3.241 -9.198,3.135 -1.709,2.068 -5.362,1.633 -8.99,1.465 -3.894,-0.182 -7.94,-0.48 -10.036,-1.882 0.169,-7.59 3.541,-16.907 11.499,-16.517 4.623,0.228 6.75,3.628 8.781,7.108 5.254,-0.597 9.676,2.141 7.944,6.691 M 5.645,5.227 C 5.125,4.279 3.659,3.898 4.181,2.51 5.742,2.083 7.149,3.656 7.317,5.018 7.556,6.961 5.925,8.099 5.018,9.199 4.973,10.29 6.584,10.604 6.063,11.5 4.126,11.527 3.472,10.081 3.554,8.99 3.663,7.539 5.996,6.726 5.645,5.227 M 9.826,2.51 C 9.441,1.918 8.745,1.639 8.78,0.628 8.943,0.582 9.023,0.453 8.989,0.209 c 2.098,-0.741 3.35,1.09 3.136,3.346 -0.208,0.697 -1.088,0.724 -1.254,1.463 0.089,0.749 0.557,1.116 0.418,2.09 C 8.578,8.975 7.709,3.267 9.826,2.51" style="fill:#000000;fill-opacity:1;fill-rule:nonzero;stroke:none" transform="matrix(1.3333333,0,0,-1.3333333,1057.6081,928.79947)" clip-path="url(#clipPath16)" />
  </g>
</svg>
