<?xml version="1.0" encoding="UTF-8"?>
<svg id="web_icons_3-4_Image" xmlns="http://www.w3.org/2000/svg" viewBox="0 0 27.78 26.51">
  <g id="comments_2">
    <path d="M17.32,7.81c-.74-.08-1.88-.47-2.42-.52-2.21-.19-4.57,0-6.41.17-1.21.11-2.79-.11-2.94,1.21.88,1.27,3,.43,4.85.35,2.81-.12,5.25.51,7.1.69,1,.1,5.8.58,5.19-1.56-.33-1.15-3.29-.13-5.37-.35ZM11.78,11.97c-1.73.08-4.19-.63-4.5,1.04,1.07,1.23,3.58.64,5.71.52,1.06-.06,2.22-.12,3.12-.17,1.16-.06,2.7.49,2.94-.87-1.07-1.64-4.74-.63-7.27-.52ZM27.02,2.79c-.68-1.35-2.97-2.41-4.85-2.6C18.87-.13,13.35,0,10.74.2c-1.28.09-4.75.15-5.89.52-.63.2-2.61,1.69-2.94,2.08C.08,4.93.55,8.45.35,12.32c-.12,2.38-.82,4.84.17,6.58,2.46,1,5.73,1.19,9.35,1.04.94,1.34,2.19,2.44,3.29,3.64,1.06,1.15,2.09,2.91,4.16,2.94.66-1.45.43-3.45.35-5.71,3.87.41,6.48-.58,7.96-2.42,1.41-1.74,1.86-4.83,2.08-8.14.17-2.48.07-5.92-.69-7.44ZM25.28,14.57c-.24,2-1.6,4.06-3.29,4.5-.51.13-3.09.31-3.81.17-.95-.19-.57-.71-1.73-.87-1.66.21-.98,3.41-.87,4.85-.21.51-.68-.49-1.04-.87-.42-.43-.8-.96-1.21-1.38-.57-.58-2.34-2.31-3.12-2.42-1.93-.28-4.35.39-6.23,0-.95-.2-1.47-.92-2.25-1.38.4-4.68-.64-10.8,1.56-13.68.98.25,1.89-.67,3.12-.87,3.12-.5,7.95-.16,11.95-.35,2.62-.12,5.19-.22,6.75,1.21.72,2.75.57,7.72.17,11.08Z" />
  </g>
</svg>
