<?xml version="1.0" encoding="UTF-8" standalone="no"?>
<!-- Created with Inkscape (http://www.inkscape.org/) -->
<svg version="1.1" id="svg1" width="39.10199" height="38.698772" viewBox="0 0 39.101991 38.698771"    xmlns="http://www.w3.org/2000/svg" xmlns:svg="http://www.w3.org/2000/svg">
  <defs id="defs1">
    <clipPath clipPathUnits="userSpaceOnUse" id="clipPath342">
      <path d="M 0,770 H 1300 V 0 H 0 Z" transform="translate(-618.51512,-629.84962)" id="path342" />
    </clipPath>
  </defs>
  <g id="layer-MC0"   transform="translate(-806.39195,-167.80318)">
    <path id="path341" d="M 0,0 C 0.844,0.266 1.614,-0.111 2.065,-0.691 2.062,-0.731 2.061,-0.771 2.071,-0.813 2.102,-0.931 2.126,-1.048 2.15,-1.166 L 2.174,-1.28 C 2.184,-1.327 2.22,-1.357 2.245,-1.395 V -1.442 C 1.187,-2.354 -0.787,-1.717 0,0 M 2.727,2.566 C 3.71,2.979 4.565,3.677 5.613,3.85 5.186,1.713 4.153,0.179 3.368,-1.604 c -0.273,0.038 -0.34,0.282 -0.464,0.469 -10e-4,0.004 10e-4,0.007 0,0.01 L 2.881,-1.013 C 2.854,-0.885 2.827,-0.757 2.794,-0.629 2.774,-0.553 2.729,-0.494 2.674,-0.445 2.548,0.006 2.252,0.272 2.566,0.803 2.253,1.926 0.568,1.112 0,1.283 0.634,2.095 1.823,2.188 2.727,2.566 m -8.02,-7.858 c -0.232,-0.733 -0.586,-1.536 -0.48,-2.245 1.704,-0.777 3.413,0.254 4.811,0.802 1.522,0.596 2.991,1.332 4.33,1.924 0.136,0.401 0.21,0.86 0.16,1.444 0.405,0.344 1.068,0.428 1.444,0.802 C 6.134,0.123 7.278,2.826 8.02,5.936 7.162,6.661 6.122,6.381 5.613,6.095 4.307,5.362 2.618,4.738 0.962,4.01 -0.702,3.278 -2.121,2.228 -3.368,1.604 -4.1,-0.567 -4.632,-3.205 -5.293,-5.292 M 1.443,7.699 C 2.027,8.119 2.174,9.205 1.765,9.784 -0.188,10.915 -0.67,7.335 1.443,7.699 M 0.481,-9.141 c -0.167,-0.422 -0.192,-0.984 -0.161,-1.604 2.797,-2.093 3.108,3.153 0.161,1.604 m 10.425,8.981 c -0.73,1.622 -3.334,-0.028 -1.925,-1.444 1.079,0.045 1.921,0.325 1.925,1.444 M -9.462,-2.244 c 0.335,-0.316 1.065,-0.123 1.443,0 1.181,2.421 -2.613,2.339 -1.443,0 m 24.538,7.057 c -0.627,1.593 -2.098,3.551 -3.368,4.81 -2.412,2.394 -6.479,4.304 -10.585,4.651 -0.85,0.073 -1.83,-0.032 -2.245,-0.16 -2.482,-0.758 -7.239,-1.185 -6.736,-4.491 1.46,-0.922 2.719,0.108 3.848,0.481 1.285,0.424 2.778,1.089 4.33,1.124 2.564,0.054 5.64,-1.002 7.7,-2.406 C 9.688,7.685 12.069,4.838 12.51,2.888 13.068,0.414 11.915,-4.425 10.745,-6.574 10.032,-7.887 8.912,-8.83 7.698,-9.782 6.625,-10.625 5.159,-11.675 4.01,-11.867 c -2.065,-0.347 -5.112,0.096 -7.057,0.641 -6.197,1.734 -10.066,8.691 -7.858,16.199 0.354,1.205 1.659,1.927 1.122,3.528 -1.161,0.34 -1.638,-0.542 -2.085,-1.123 -1.508,-1.957 -2.094,-6.749 -1.764,-9.943 0.503,-4.884 5.116,-9.843 9.622,-11.227 3.276,-1.006 8.446,-1.464 11.227,0 1.594,0.839 4.059,2.845 5.133,4.169 2.258,2.789 4.237,10.596 2.726,14.436" style="fill:#000000;fill-opacity:1;fill-rule:nonzero;stroke:none" transform="matrix(1.3333333,0,0,-1.3333333,824.6868,186.8672)" clip-path="url(#clipPath342)" />
  </g>
</svg>
