<?xml version="1.0" encoding="UTF-8"?>
<svg id="web_icons_3-4_Image" xmlns="http://www.w3.org/2000/svg" viewBox="0 0 23 24.03">
  <g id="plus">
    <path fill-rule="evenodd" d="M22.69,9.7c-2.02-.76-5.8.24-7.82-.52-.07-1.56.09-3.54,0-5.21-.07-1.44.1-3.43-1.04-3.91-.85-.24-3.21.26-4.17.78-.72,2.49.29,6.72-.78,8.86-3.15.24-7.01-.23-8.86,1.3-.04,1.43-.03,2.81.26,3.91,2.87-.06,5.92.68,8.6,0,1.08,2.31.58,6.19,1.3,8.86,1.55.64,3.4-.09,4.69-.52,1.5-2.5-.61-6.23.26-8.86,2.06.37,5.51.45,7.56,0,.42-1.04.42-3.65,0-4.69ZM15.13,13.35c-.9.21-1-.39-1.82-.26-.18,1.17-.56,2.61-.52,4.17.05,1.97,1.6,4.62-1.04,4.69-.14-3.24-.82-5.96-1.3-8.86-1.26-.12-3.14.4-4.69.52-1.44.11-3.55.64-3.65-.78.36-1.02,1.77-.44,2.61-.52,1.72-.17,3.63-.46,4.95-.78,1.96-1.69.8-6.49,1.56-9.38.37.02.74.04.78-.26.3-.04.46.06.52.26.21,2.92-.5,6.75.52,8.86,1.92,1.11,6.65-.06,8.08.78-.67,1.85-4.5.54-5.99,1.56Z" />
  </g>
</svg>
