<?xml version="1.0" encoding="UTF-8" standalone="no"?>
<!-- Created with Inkscape (http://www.inkscape.org/) -->
<svg version="1.1" id="svg1" width="37.958313" height="42.666443" viewBox="0 0 37.958314 42.666441"    xmlns="http://www.w3.org/2000/svg" xmlns:svg="http://www.w3.org/2000/svg">
  <defs id="defs1">
    <clipPath clipPathUnits="userSpaceOnUse" id="clipPath24">
      <path d="M 0,770 H 1300 V 0 H 0 Z" transform="translate(-550.78372,-79.130902)" id="path24" />
    </clipPath>
  </defs>
  <g id="layer-MC0"   transform="translate(-725.52299,-913.46567)">
    <path id="path23" d="m 0,0 c 0.188,0.527 1.774,2.298 2.359,2.773 2.265,1.844 6.558,2.143 8.743,0.556 0.549,-0.398 1.933,-2.242 2.22,-3.054 0.396,-1.119 0.212,-2.431 0.277,-3.885 -0.814,-1.406 -2.348,-2.092 -3.053,-3.608 0.036,-0.612 0.564,-0.732 0.694,-1.249 -0.049,-0.436 0.141,-1.013 0.139,-1.665 -10e-4,-0.502 0.286,-1.428 -0.416,-1.388 -0.925,-0.092 -0.068,1.598 -0.555,1.943 -0.672,0.301 -1.879,0.064 -2.776,0.139 -0.514,-0.457 0.403,-2.346 -0.554,-2.358 -0.83,-0.09 -0.24,1.24 -0.418,1.803 -0.404,0.941 -2.478,0.52 -3.33,0.277 -0.251,-0.542 0.267,-0.981 0.14,-1.804 -0.66,0.16 -1.136,-0.322 -1.527,0 -0.037,0.863 0.051,1.547 0,2.22 -0.05,0.653 -0.061,1.607 -0.277,2.221 -0.25,0.703 -0.94,0.949 -1.25,1.527 C -0.03,-4.724 -0.602,-1.686 0,0 m 1.11,-12.353 c 0.905,-0.303 2.184,-0.03 3.053,0.139 0.273,0.375 0.082,1.214 0.138,1.805 0.488,0.068 0.904,0.207 1.527,0.138 v -2.22 c 0.618,-0.287 1.85,-0.132 2.498,0 0.355,0.592 -0.302,1.57 0.139,2.22 h 1.248 c -0.102,-0.55 -0.3,-1.571 0,-2.082 0.653,-0.204 1.799,-0.037 2.36,0.278 0.337,1.281 0.066,3.104 0,4.441 0.959,1.376 2.45,1.853 2.915,3.468 0.424,1.482 0.221,3.817 -0.14,4.857 -0.145,0.421 -0.56,0.678 -0.832,1.112 C 13.729,2.258 13.599,2.834 13.322,3.19 10.733,6.505 4.881,6.503 1.526,3.884 0.311,2.936 -1.454,0.75 -1.527,-1.39 c -0.088,-2.603 0.415,-4.391 2.082,-5.966 0.129,-1.721 0.231,-3.47 0.555,-4.997 m 2.498,7.495 C 6.579,-5.013 6.34,0.738 3.33,-0.141 1.26,-0.745 1.557,-4.752 3.608,-4.858 m 17.624,-8.189 c -0.607,0.906 -1.933,1.291 -2.775,1.805 0.059,3.613 -6.244,2.283 -4.302,-1.249 -2.585,-0.929 -4.984,-2.048 -7.633,-2.915 -2.262,1.3 -4.692,2.431 -7.216,3.469 -0.321,1.474 -1.144,3.333 -2.498,3.47 -1.698,0.172 -2.185,-1.866 -1.527,-3.747 -0.706,0.012 -1.448,0.062 -1.803,-0.277 -0.469,-2.423 1.598,-3.531 3.547,-2.9 0.042,-0.02 0.083,-0.042 0.13,-0.042 0.034,0 0.068,0.005 0.103,0.017 l 0.277,0.091 c 0.002,0 0.004,0.002 0.006,0.004 1.988,-0.572 3.795,-1.324 5.512,-2.165 -1.364,-0.859 -3.059,-1.383 -4.719,-1.944 -1.708,4.193 -7.755,-1.558 -3.469,-2.775 -2.432,-3.389 4.67,-5.604 4.58,-1.943 -0.97,0.022 -1.849,-0.852 -2.775,-0.555 -0.439,0.139 -0.885,0.661 -0.834,1.249 0.097,1.097 1.893,0.936 1.805,2.498 -0.778,0.585 -2.484,-0.828 -3.053,0.555 0.406,0.518 0.842,1.006 1.526,1.249 1.686,-1.122 2.863,-0.795 4.719,-0.139 1.412,0.5 2.556,0.671 3.052,1.527 0.503,-0.422 1.351,-0.5 1.804,-0.971 -0.85,-0.382 -1.656,-0.87 -2.497,-1.389 -1.496,-0.92 -3.238,-1.454 -3.886,-2.914 2.857,0.474 4.485,2.175 6.8,3.192 0.276,0.141 0.316,0.516 0.554,0.694 1.863,-0.822 3.243,-2.125 5.413,-2.637 -0.142,-2.367 1.065,-4.441 3.33,-4.441 0.997,0 2.41,0.628 2.637,1.387 0.519,1.734 -1.004,2.212 -1.803,3.054 1.602,0.226 3.319,0.995 2.775,2.915 -0.424,0.235 -1.14,0.731 -1.944,0.832 -1.458,0.181 -3.394,-0.24 -3.469,-1.249 0.988,-0.58 3.384,1.105 4.441,-0.277 -0.327,-1.247 -2.192,-0.953 -3.192,-1.527 0.006,-0.551 0.535,-0.574 0.833,-0.833 -0.179,-0.182 -0.179,-0.511 0,-0.694 0.416,-0.555 1.236,-0.708 1.249,-1.665 -1.816,-1.996 -4.449,0.166 -4.024,2.914 -0.737,0.642 -1.432,1.037 -2.36,1.527 -3.95,2.086 -8.161,4.423 -12.905,5.411 -0.258,0.021 -0.39,-0.083 -0.41,-0.298 l -0.179,-0.06 c -0.035,-0.012 -0.066,-0.031 -0.094,-0.054 -1.373,0.017 -2.42,0.362 -2.509,1.661 1.226,0.506 1.526,-0.918 2.636,-0.971 0.489,1.496 -1.964,3.047 -0.554,4.58 1.732,-0.534 1.545,-2.988 2.359,-4.44 0.708,-0.108 0.316,0.884 0.971,0.831 3.444,-1.495 6.72,-3.489 9.992,-5.133 1.037,-0.523 2.371,-1.464 3.608,-0.972 -0.157,1.231 -1.847,0.93 -2.359,1.805 0.832,0.079 1.663,0.559 2.497,0.831 0.782,0.257 1.992,0.186 2.221,1.11 -0.825,0.474 -1.983,-0.107 -2.914,-0.415 -1.017,-0.337 -2.03,-0.818 -2.915,-1.11 -0.863,0.477 -1.851,0.831 -2.636,1.386 1.589,0.095 2.969,0.844 4.302,1.388 1.385,0.568 3.023,0.719 3.885,1.943 0.105,0.752 -0.749,0.546 -0.554,1.388 0.384,1.034 2.136,1.057 2.359,-0.139 -0.145,-0.41 -0.703,-0.409 -0.555,-1.11 0.299,-0.432 1.009,-0.241 1.526,-0.139 1.145,-0.52 2.143,-1.187 2.359,-2.635 -0.447,-1.4 -3.051,-0.835 -4.163,-0.833 0.215,-2.579 4.914,-1.288 5.274,0.415 0.163,0.776 -0.212,1.845 -0.556,2.359 M 5.689,-8.05 c 0.769,-0.932 2.606,-0.736 2.776,0.278 0.168,1.005 -1.108,1.308 -1.527,2.08 C 5.9,-5.855 5.644,-6.803 5.689,-8.05 m 3.192,3.192 c 3.414,-0.758 3.844,5.297 0.277,4.301 -1.866,-0.521 -2.32,-3.849 -0.277,-4.301" style="fill:#000000;fill-opacity:1;fill-rule:nonzero;stroke:none" transform="matrix(1.3333333,0,0,-1.3333333,734.37827,921.1588)" clip-path="url(#clipPath24)" />
  </g>
</svg>
