<?xml version="1.0" encoding="UTF-8"?>
<svg id="web_icons_3-4_Image" xmlns="http://www.w3.org/2000/svg" viewBox="0 0 32 29.97">
  <g id="write_new">
    <path d="M26.4.01c-.85.08-1.13.9-2.1.84-2.84,3.88-7.31,6.52-11.33,9.86-1.81,1.5-3.75,3.33-5.66,5.04-1.07.95-2.68,1.99-3.57,2.94-.18.19-.18.78-.42,1.05-.47.52-1.19.77-1.47,1.26-.65,1.15-.68,2.86-1.05,4.4-.33,1.36-1.16,2.94-.63,4.41,2.12.69,4.58-1,6.92-1.68.73-.21,1.81-.08,2.52-.42.79-.38,2.11-2.07,3.36-3.15,2.93-2.53,6.16-5.29,9.02-7.55.72-.57,1.59-.81,2.1-1.26,1.17-1.04,2.26-2.68,3.78-4.2.8-.8,2.11-2.26,2.94-2.94.72-.59.85-.42,1.05-1.05C32.73,4.73,29.58-.28,26.4.01ZM8.77,26.03c-.93-.17-1.26.28-2.1.21-.98-1.12-1.59-2.6-3.36-2.94-.12-1.33,1.25-1.75.63-2.94.49,0,.62.36,1.26.21.34.5.47,1.21.63,1.89,1.17.08,1.51-1.15,2.73-.42-.12,1.03.2,1.62,1.26,1.47.09,1.27-1.41.97-1.05,2.52ZM29.54,6.94c-.24,1.68-3.47,3.88-5.25,5.67-1.54,1.54-2.6,2.71-4.41,4.2-2.39,1.96-5.85,4.09-7.76,6.29-.82-1.35-2.12-2.22-3.36-3.15-1.67.24-2,.08-2.94-.63C12.54,13.44,19.93,8.23,26.19,1.9c1.61,1.15,3.68,2.76,3.36,5.04ZM24.76,6.01c-4.29,4.03-8.6,7.56-12.82,10.49-.18.13-.23.38-.1.56.08.11.2.17.33.17.08,0,.16-.02.23-.07,4.25-2.96,8.6-6.51,12.91-10.56.16-.15.17-.41.02-.57-.15-.16-.41-.17-.57-.02Z" />
  </g>
</svg>
