<?xml version="1.0" encoding="UTF-8" standalone="no"?>
<!-- Created with Inkscape (http://www.inkscape.org/) -->
<svg version="1.1" id="svg1" width="42.665649" height="39.955521" viewBox="0 0 42.665651 39.955519"    xmlns="http://www.w3.org/2000/svg" xmlns:svg="http://www.w3.org/2000/svg">
  <defs id="defs1">
    <clipPath clipPathUnits="userSpaceOnUse" id="clipPath384">
      <path d="M 0,770 H 1300 V 0 H 0 Z" transform="translate(-567.13282,-709.24412)" id="path384" />
    </clipPath>
  </defs>
  <g id="layer-MC0"   transform="translate(-723.16934,-72.992786)">
    <path id="path383" d="m 0,0 c -4.287,-4.027 -8.601,-7.555 -12.822,-10.487 -0.184,-0.128 -0.229,-0.38 -0.101,-0.563 0.078,-0.113 0.203,-0.174 0.332,-0.174 0.079,0 0.16,0.023 0.23,0.072 4.254,2.955 8.599,6.509 12.915,10.563 0.162,0.153 0.17,0.408 0.017,0.571 C 0.418,0.146 0.164,0.154 0,0 m 4.789,-0.924 c -0.242,-1.683 -3.466,-3.884 -5.247,-5.665 -1.539,-1.539 -2.603,-2.714 -4.405,-4.196 -2.388,-1.964 -5.847,-4.09 -7.763,-6.293 -0.816,1.351 -2.119,2.215 -3.357,3.146 -1.668,-0.237 -1.999,-0.081 -2.937,0.629 6.709,5.879 14.093,11.083 20.351,17.415 1.611,-1.154 3.683,-2.763 3.358,-5.036 m -20.772,-19.094 c -0.934,0.165 -1.259,-0.277 -2.099,-0.209 -0.978,1.119 -1.593,2.603 -3.356,2.938 -0.119,1.326 1.247,1.747 0.629,2.937 0.495,0.005 0.618,-0.362 1.259,-0.21 0.342,-0.497 0.465,-1.213 0.63,-1.889 1.173,-0.075 1.512,1.155 2.727,0.422 -0.124,-1.034 0.202,-1.617 1.259,-1.47 0.085,-1.275 -1.408,-0.97 -1.049,-2.519 M 1.641,5.999 C 0.794,5.922 0.513,5.098 -0.458,5.159 -3.293,1.277 -7.768,-1.366 -11.788,-4.7 c -1.806,-1.502 -3.749,-3.326 -5.664,-5.037 -1.067,-0.951 -2.683,-1.993 -3.567,-2.937 -0.181,-0.193 -0.182,-0.784 -0.419,-1.049 -0.472,-0.523 -1.191,-0.77 -1.469,-1.259 -0.654,-1.148 -0.682,-2.863 -1.049,-4.405 -0.325,-1.364 -1.156,-2.936 -0.629,-4.406 2.115,-0.689 4.581,0.996 6.924,1.679 0.733,0.213 1.807,0.08 2.517,0.418 0.795,0.382 2.111,2.074 3.356,3.149 2.935,2.529 6.162,5.285 9.023,7.552 0.724,0.574 1.594,0.807 2.098,1.258 1.167,1.043 2.256,2.677 3.776,4.197 0.799,0.798 2.107,2.259 2.938,2.937 0.724,0.592 0.854,0.417 1.048,1.049 C 7.97,1.285 4.826,6.292 1.641,5.999" style="fill:#000000;fill-opacity:1;fill-rule:nonzero;stroke:none" transform="matrix(1.3333333,0,0,-1.3333333,756.17707,81.007867)" clip-path="url(#clipPath384)" />
  </g>
</svg>
