<?xml version="1.0" encoding="UTF-8" standalone="no"?>
<!-- Created with Inkscape (http://www.inkscape.org/) -->
<svg version="1.1" id="svg1" width="42.66626" height="30.114304" viewBox="0 0 42.666261 30.114302"    xmlns="http://www.w3.org/2000/svg" xmlns:svg="http://www.w3.org/2000/svg">
  <defs id="defs1">
    <clipPath clipPathUnits="userSpaceOnUse" id="clipPath390">
      <path d="M 0,770 H 1300 V 0 H 0 Z" transform="translate(-387.31741,-690.05371)" id="path390" />
    </clipPath>
  </defs>
  <g id="layer-MC0"   transform="translate(-478.84505,-79.246723)">
    <path id="path389" d="m 0,0 c -8.895,-0.192 -17.199,-0.395 -25.821,0.163 -0.896,4.753 -0.829,10.466 -0.823,16.119 -0.124,0.568 0.748,-0.142 0.987,-0.329 0.956,-0.748 1.951,-1.516 3.125,-2.302 1.417,-0.95 3.028,-2.032 4.276,-3.125 1.137,-0.998 1.746,-2.568 3.29,-2.796 0.335,0.048 0.322,0.444 0.657,0.493 0.161,1.357 -1.215,2.038 -1.974,2.796 -2.278,2.279 -5.217,4.178 -8.058,6.086 1.854,0.434 3.77,0.33 5.756,0.493 1.524,0.125 3.053,0.695 4.606,0.823 C -9.212,18.81 -4.383,17.97 0.494,17.927 1.136,17.691 0.169,17.272 0.165,17.269 -2.868,14.752 -7.038,12.696 -10.526,10.362 -11.095,9.979 -11.88,9.598 -12.5,9.21 c -0.583,-0.365 -1.622,-0.694 -1.479,-1.645 1.133,-1.131 2.401,0.11 3.289,0.658 2.9,1.793 6.125,3.559 9.045,5.592 1.199,0.833 2.093,2.208 3.455,2.632 C 2.175,9.995 0.989,5.096 0,0 m 2.96,19.571 c -2.636,0.908 -5.58,0.528 -8.552,0.659 -2.908,0.126 -6.056,0.456 -9.046,0.164 -1.349,-0.132 -2.703,-0.7 -4.112,-0.823 -3.119,-0.271 -6.38,0.108 -9.045,-0.822 -0.43,-3.135 -0.44,-6.806 -0.329,-10.362 0.11,-3.525 0.219,-7.086 1.151,-9.703 6.9,-1.034 15.012,-0.81 22.533,-0.494 2.053,0.087 4.202,-0.307 6.085,0.33 0.999,6.147 3.469,14.22 1.315,21.051" style="fill:#000000;fill-opacity:1;fill-rule:evenodd;stroke:none" transform="matrix(1.3333333,0,0,-1.3333333,516.4232,106.59507)" clip-path="url(#clipPath390)" />
  </g>
</svg>
