<?xml version="1.0" encoding="UTF-8" standalone="no"?>
<!-- Created with Inkscape (http://www.inkscape.org/) -->

<svg
   version="1.1"
   id="svg1"
   width="42.850342"
   height="22.781616"
   viewBox="0 0 42.850343 22.781615"
   xmlns="http://www.w3.org/2000/svg"
   xmlns:svg="http://www.w3.org/2000/svg">
  <defs
     id="defs1">
    <clipPath
       clipPathUnits="userSpaceOnUse"
       id="clipPath276">
      <path
         d="M 0,770 H 1300 V 0 H 0 Z"
         transform="translate(-194.3496,-485.52541)"
         id="path276" />
    </clipPath>
  </defs>
  <g
     id="layer-MC0"
     transform="translate(-234.42941,-362.18804)">
    <path
       id="path275"
       d="M 0,0 C -0.23,-0.093 -0.459,-0.19 -0.686,-0.29 -1.118,-0.48 -1.528,-0.657 -1.955,-0.797 -5.607,-1.231 -7.393,0.2 -8.712,2.099 -9.24,6.692 -6.884,9.226 -2.952,8.819 1.357,8.374 3.393,2.547 0,0 m 0.888,9.06 c -2.032,1.593 -6.391,1.728 -8.64,0.239 -3.158,-2.091 -2.961,-9.111 0.72,-10.8 1.51,-0.693 2.98,-0.45 4.993,-0.094 0.054,-0.023 0.106,-0.053 0.167,-0.053 0.043,0 0.087,0.006 0.13,0.02 0.487,0.155 0.95,0.359 1.399,0.556 0.26,0.114 0.52,0.228 0.784,0.333 2.172,0.41 3.082,4.48 2.607,6.677 C 2.828,6.954 1.372,8.68 0.888,9.06 m -4.56,-12.241 c -3.104,0.034 -5.592,1.558 -8.4,2.64 -1.973,0.761 -4.774,4.147 -4.8,5.28 l -0.006,0.006 c 0.489,0.451 0.872,0.834 1.2,1.199 l 0.006,-0.006 c 3.429,1.872 7.112,4.936 11.76,5.521 7.11,0.895 12.353,-3.437 15.84,-7.2 -2.472,-3.427 -9.719,-7.504 -15.6,-7.44 m 10.56,14.16 c -4.914,2.587 -10.886,2.198 -15.36,0.48 -2.87,-1.103 -5.604,-2.853 -7.672,-4.811 -0.06,-0.023 -0.117,-0.057 -0.163,-0.109 -0.298,-0.334 -0.655,-0.69 -1.101,-1.103 -2.626,-0.962 0.029,-3.07 1.256,-4.296 2.383,-2.383 4.611,-3.829 8.16,-4.801 4.207,-1.152 7.888,-0.419 11.04,0.48 1.43,0.409 2.789,0.927 4.32,1.68 1.82,0.895 6.357,3.736 6.24,6 -0.096,1.867 -5.29,5.727 -6.72,6.48 m -9.84,-5.76 c -0.061,0.86 0.721,0.88 0.72,1.68 -4.894,1.217 -6.297,-4.678 -3.36,-6.48 2.135,-1.31 5.583,0.137 5.04,3.84 -1.035,-0.531 -2.21,-0.049 -2.4,0.96"
       style="fill:#000000;fill-opacity:1;fill-rule:nonzero;stroke:none"
       transform="matrix(1.3333333,0,0,-1.3333333,259.1328,379.29947)"
       clip-path="url(#clipPath276)" />
  </g>
</svg>
