<?xml version="1.0" encoding="UTF-8" standalone="no"?>
<!-- Created with Inkscape (http://www.inkscape.org/) -->

<svg
   version="1.1"
   id="svg1"
   width="37.87146"
   height="37.481506"
   viewBox="0 0 37.871461 37.481505"
   xmlns="http://www.w3.org/2000/svg"
   xmlns:svg="http://www.w3.org/2000/svg">
  <defs
     id="defs1">
    <clipPath
       clipPathUnits="userSpaceOnUse"
       id="clipPath324">
      <path
         d="M 0,770 H 1300 V 0 H 0 Z"
         transform="translate(-1178.4082,-626.69731)"
         id="path324" />
    </clipPath>
  </defs>
  <g
     id="layer-MC0"
     transform="translate(-1539.982,-169.90093)">
    <path
       id="path323"
       d="M 0,0 C 0.552,-0.731 1.372,-1.194 2.405,-1.444 2.067,-2.121 1.688,-2.757 1.122,-3.208 c -0.563,0.345 -1.544,0.271 -2.244,0.481 -1.138,-1.482 -2.336,-2.903 -4.331,-3.529 0.841,-0.602 0.581,-2.306 1.443,-2.886 -0.158,-0.697 -1.068,-0.643 -1.443,-1.123 -0.463,1.247 -1.583,1.838 -1.604,3.529 -1.872,-0.108 -3.379,0.15 -5.132,0.16 -0.608,-0.568 -0.863,-1.488 -1.283,-2.246 -0.958,-0.156 -1.226,0.379 -2.085,0.322 0.261,0.808 0.346,1.791 0.642,2.565 -0.142,0.501 -0.622,0.662 -1.123,0.803 -0.377,0.692 -0.91,1.228 -1.123,2.084 -1.178,-0.159 -1.983,-0.69 -2.887,-1.123 -0.535,0.373 -1.033,0.785 -1.283,1.444 1.101,0.503 2.143,1.065 2.887,1.924 -0.564,1.189 -0.405,3.615 0.16,4.652 -0.135,0.505 -0.826,0.456 -0.961,0.963 -0.557,-0.8 -0.97,0.678 -1.926,0.48 0.301,0.876 1.166,1.187 1.605,1.925 0.705,-0.097 1.024,-0.58 1.603,-0.802 1.073,0.585 1.447,1.867 1.925,3.047 0.327,0.322 0.314,-0.071 0.642,-0.16 0.353,0.395 0.446,1.05 1.122,1.123 -0.891,0.499 -0.784,1.995 -1.283,2.887 0.422,0.379 1.277,0.327 1.604,0.801 0.726,-0.342 0.869,-1.269 1.764,-1.443 0.102,-0.594 0.435,-0.955 0.321,-1.764 1.68,0.078 3.956,0.741 5.453,0 0.324,1.012 0.958,1.714 1.443,2.566 0.675,-0.021 0.769,-0.621 1.444,-0.642 -0.278,-0.579 -0.3,-1.411 -0.642,-1.924 0.757,-1.757 2.316,-2.711 3.208,-4.331 1.13,0.604 2.016,1.482 3.528,1.283 C 2.638,7.448 2.791,7.121 3.048,6.896 1.736,6.55 1.648,4.98 -0.161,5.132 0.155,3.683 -0.065,1.699 0,0 M 4.972,6.255 C 5.108,7.396 3.814,8.193 3.368,9.302 1.66,9.46 0.949,8.621 -0.161,8.18 c -0.72,1.149 -1.708,2.032 -2.566,3.046 0.341,0.729 1.358,0.782 1.123,2.086 -1.1,0.77 -2.193,1.548 -3.689,1.923 -0.853,-0.588 -1.233,-1.651 -1.924,-2.405 -1.512,0.068 -2.824,-0.062 -4.17,-0.16 -0.572,1.032 -0.726,2.481 -1.604,3.207 -1.352,-0.466 -2.641,-0.994 -3.85,-1.604 -0.31,-1.397 0.57,-2.656 1.123,-3.689 -0.909,-0.587 -1.769,-1.223 -2.245,-2.244 -0.679,0.176 -0.918,0.792 -1.765,0.802 -0.844,-0.196 -1.304,-1.314 -2.084,-2.085 -0.672,-0.666 -1.695,-1.006 -1.604,-1.925 0.142,-1.439 2.378,-1.213 3.528,-2.085 -0.256,-1.065 -0.42,-2.392 -0.16,-3.528 -1.305,-0.711 -2.946,-1.098 -2.726,-2.727 0.09,-0.672 1.761,-2.387 2.726,-2.406 0.823,-0.016 1.138,0.796 1.925,0.963 0.179,-1.105 1.071,-1.495 1.443,-2.406 -0.53,-0.655 -1.042,-1.446 -0.801,-2.246 0.255,-0.853 1.159,-0.617 2.406,-1.122 0.535,-0.218 1.171,-1.002 1.763,-0.963 1.749,0.116 1.589,2.093 2.246,3.047 1.066,-0.055 1.996,-0.248 3.208,-0.159 0.619,-1.565 0.125,-3.275 1.443,-3.689 0.727,-0.229 1.955,0.463 2.727,0.961 2.091,1.353 1.763,2.678 0.481,4.171 1.223,0.434 1.644,1.67 2.726,2.244 C 0.388,-5.029 1.288,-5.46 2.246,-5.132 2.52,-3.376 4.229,-3.053 4.17,-0.963 3.688,-0.108 2.229,-0.232 1.604,0.48 V 4.33 C 2.991,4.97 4.802,4.835 4.972,6.255 M -11.707,5.613 c 2.401,-0.783 5.299,1.046 5.934,-1.604 0.897,-3.746 -2.483,-6.214 -5.775,-4.812 -1.418,0.605 -2.553,3.922 -1.764,6.095 0.367,1.009 1.594,1.108 1.605,2.085 -1.185,0.95 -2.843,-0.966 -3.208,-2.085 -1.121,-3.424 1.373,-7.341 3.208,-8.18 1.853,-0.846 4.727,-0.24 5.934,0.642 0.588,0.432 1.778,2.149 1.924,2.726 0.569,2.251 -0.025,5.208 -0.963,6.095 -1.267,1.199 -6.639,1.846 -6.895,-0.962"
       style="fill:#000000;fill-opacity:1;fill-rule:nonzero;stroke:none"
       transform="matrix(1.3333333,0,0,-1.3333333,1571.2109,191.07027)"
       clip-path="url(#clipPath324)" />
  </g>
</svg>
