<?xml version="1.0" encoding="UTF-8" standalone="no"?>
<!-- Created with Inkscape (http://www.inkscape.org/) -->
<svg version="1.1" id="svg1" width="42.088379" height="37.377411" viewBox="0 0 42.08838 37.377409"    xmlns="http://www.w3.org/2000/svg" xmlns:svg="http://www.w3.org/2000/svg">
  <defs id="defs1">
    <clipPath clipPathUnits="userSpaceOnUse" id="clipPath372">
      <path d="M 0,770 H 1300 V 0 H 0 Z" transform="translate(-910.93855,-687.66552)" id="path372" />
    </clipPath>
  </defs>
  <g id="layer-MC0"   transform="translate(-1212.1054,-74.282001)">
    <path id="path371" d="m 0,0 c -0.049,2.081 0.025,4.037 0.16,5.934 1.875,1.439 5.305,1.324 6.415,3.529 0.384,4.005 -1.832,5.776 -1.764,9.622 0.065,3.686 2.306,5.236 5.934,6.095 1.66,0.392 1.891,-4.491 1.765,-6.254 C 12.327,16.382 11.122,14.012 10.906,12.51 10.77,11.574 10.809,9.925 11.066,9.303 11.625,7.955 14.191,7.741 15.717,6.575 17.078,5.535 17.815,3.949 17.802,1.283 11.984,0.739 6.518,-0.156 0,0 m 14.273,17.963 c -0.136,0.029 -0.151,-0.063 -0.16,-0.16 -0.188,0.025 -0.134,0.292 -0.16,0.48 0.273,0.059 0.303,-0.126 0.32,-0.32 M 29.51,7.377 c -1.66,1.602 -3.943,2.58 -6.575,3.208 -0.35,0.346 -0.404,0.987 -0.643,1.444 0.581,0.755 1.395,1.279 1.604,2.406 0.688,-0.047 1.06,0.222 1.444,0.481 0.254,0.761 0.333,1.698 0.481,2.565 -0.254,0.388 -0.858,0.425 -1.283,0.642 -0.137,5.338 -7.661,5.102 -7.057,-0.32 -0.284,-0.198 -0.845,-0.117 -0.962,-0.482 0.2,-0.548 0.054,-1.442 0.321,-1.925 -0.072,-0.446 0.874,0.126 0.802,-0.32 0.469,-1.436 0.551,-2.297 0.801,-3.849 -0.516,-1.248 -2.409,-1.12 -3.047,-2.246 1.375,-1.366 3.845,0.728 4.169,1.765 0.285,0.9 -0.39,1.901 0.322,2.567 -1.586,1.691 -1.786,6.972 0.802,7.216 2.782,0.262 2.939,-4.615 1.444,-6.576 -0.067,-0.273 -0.208,0.033 -0.482,0 C 20.067,9.865 22.443,9.667 24.859,8.34 26.595,7.386 28.241,6.626 27.425,4.33 24.865,4.484 23.267,3.678 20.689,3.85 20.016,3.903 19.813,2.918 19.406,3.208 19.04,7.44 15.342,8.339 12.349,9.943 c -0.506,2.316 0.961,3.638 1.123,5.774 1.457,0.448 2.632,1.921 2.085,3.849 -0.163,0.478 -1.143,0.141 -1.444,0.482 -0.003,2.936 -0.53,5.349 -2.245,6.575 C 6.902,26.402 3.531,24.587 3.367,19.566 0.434,19.273 2.221,16.253 3.688,15.717 3.666,13.289 6.262,12.131 4.971,9.463 3.141,8.24 0.083,8.583 -1.123,6.736 -2.16,5.148 -1.814,2.802 -1.765,0.16 c 0.461,-0.502 1.525,-0.399 1.444,-1.443 6.841,-0.511 13.36,0.631 19.406,1.443 0.557,0.751 0.583,1.037 0.48,2.406 1.488,-1.165 3.978,-0.177 6.256,0 1.658,0.129 2.617,0.059 3.529,0.642 0.498,0.896 0.399,3.049 0.16,4.169" style="fill:#000000;fill-opacity:1;fill-rule:evenodd;stroke:none" transform="matrix(1.3333333,0,0,-1.3333333,1214.5847,109.77933)" clip-path="url(#clipPath372)"    />
  </g>
</svg>
