<?xml version="1.0" encoding="UTF-8"?>
<svg id="web_icons_3-4_Image" xmlns="http://www.w3.org/2000/svg" viewBox="0 0 27.84 25.09">
  <g id="home">
    <path fill-rule="evenodd" d="M23.76,16.2c1.53-.31,3.13-.55,4.08-1.44-.25-2.71-1.89-3.33-3.84-5.04-1.11-.97-2.23-2.07-3.12-3.12-.75-.88-4.79-7.57-6.24-6.48-1.68,1.26-3.01,3.79-5.52,4.56.07-1.03-.33-1.59-.72-2.16-3.3.15-5.47,3.17-3.36,6C2.92,10.16.74,11.75,0,14.76c1.01.58,2.08,1.12,3.36,1.44.55,2.33-.21,5.97.72,7.92,1.47-.24,2.68.38,4.08.48,2.46.17,4.84-.59,7.2-.24.77.12,1.59.69,2.4.72,2.08.08,4.33-1.05,6.48-.96.57-2.34-.69-5.96-.48-7.92ZM7.44,4.68c.19.45.4.88.48,1.44-.36.36-1.01.43-1.2.96-.63-.33-.68-1.24-.96-1.92.76.04.8-.64,1.68-.48ZM16.08,22.44c-1.16.44-3.04.16-4.56.24.52-2.04.04-5.08.72-6.96,1.46.02,2.81-.07,3.84-.48.94,1.51-.35,4.7,0,7.2ZM18.24,21.96c-.07-2.57-.38-4.9-.24-7.68-2.03-1.13-4.69.56-7.44.24-1.31,1.73-1.17,4.91-1.2,7.92-1.09.27-2.51.21-3.6.48.36-3.18-.69-5.9-.24-8.4-.63-.73-1.95-.77-3.36-.72,3.98-3.94,8.92-6.92,12.72-11.04.39-.07.41.23.72.24,2.41,4.31,5.93,7.51,9.36,10.8-1.37.31-2.86.5-3.6,1.44.41,2.07.73,4.22.72,6.72-.84.41-2.39-.25-3.84,0Z" />
  </g>
</svg>
