<?xml version="1.0" encoding="UTF-8" standalone="no"?>
<!-- Created with Inkscape (http://www.inkscape.org/) -->
<svg version="1.1" id="svg1" width="51.537338" height="51.24231" viewBox="0 0 51.53734 51.242307"    xmlns="http://www.w3.org/2000/svg" xmlns:svg="http://www.w3.org/2000/svg">
  <defs id="defs1">
    <clipPath clipPathUnits="userSpaceOnUse" id="clipPath320">
      <path d="M 0,770 H 1300 V 0 H 0 Z" transform="translate(-53.290501,-551.72071)" id="path320" />
    </clipPath>
  </defs>
  <g id="layer-MC0"   transform="translate(-67.203329,-254.0444)">
    <path id="path319" d="M 0,0 C 1.471,-0.328 2.754,0.865 3.207,2.085 1.503,2.091 -0.217,1.396 0,0 M 29.028,10.906 C 28.803,10.558 28.366,10.465 28.066,10.104 27.185,9.042 26.722,7.007 25.34,6.896 c -0.007,0.596 0.339,0.838 0.606,1.159 0.101,0.02 0.198,0.066 0.262,0.157 0.235,0.332 0.489,0.661 0.746,0.993 0.918,1.188 1.867,2.418 2.136,3.955 0.016,0.095 -0.007,0.185 -0.049,0.263 -0.019,0.191 -0.056,0.4 -0.013,0.53 -1.637,1.371 -4.291,-0.538 -5.773,-0.321 0.014,0.182 0.064,0.327 0.14,0.448 0.1,-0.023 0.209,-0.018 0.308,0.033 1.573,0.815 3.721,1.407 4.978,0.897 0.502,-0.204 0.834,-0.57 1.015,-1.119 0.022,-0.065 0.071,-0.108 0.115,-0.155 -0.047,-1.18 -0.289,-2.069 -0.783,-2.83 M 22.613,5.292 c -0.087,0.839 0.51,2.844 0.642,4.33 0.046,0.513 -0.143,1.2 0,1.605 0.534,1.514 3.123,2.445 5.132,2.405 V 13.513 C 28.331,13.456 28.286,13.388 28.271,13.303 28.038,11.968 27.152,10.821 26.297,9.712 26.033,9.372 25.772,9.033 25.53,8.692 25.487,8.632 25.47,8.564 25.462,8.496 24.306,7.635 23.544,6.379 22.613,5.292 m -2.886,10.425 c 0.052,-3.848 -7.137,-3.168 -8.982,-1.444 0.102,3.664 6.925,3.097 8.982,1.444 M 8.18,6.742 C 6.649,7.833 4.664,9.665 3.798,12.245 3.775,12.311 3.735,12.364 3.688,12.41 v 0.581 c 0.798,1.113 2.939,-0.007 4.169,0 C 7.422,10.862 8.227,8.502 8.18,6.742 m 13.792,6.89 C 21.818,10.868 22.167,7.774 21.49,5.613 20.966,3.936 19.316,3.463 18.764,2.085 17.701,1.65 16.806,1.05 16.198,0.16 c 0.068,-1.563 -0.412,-2.948 0.16,-4.17 -0.408,-0.578 -0.594,-2.826 0,-3.368 1.149,-0.132 1.004,1.028 1.123,1.925 1.607,0.109 2.753,-0.241 3.689,-0.803 0.286,-1.108 -1.042,-1.694 -1.925,-2.084 -2.462,-1.088 -6.632,-1.417 -9.141,0 -0.23,2.368 1.202,3.074 3.046,3.367 0.681,-0.281 0.363,-1.56 1.123,-1.763 0.97,0.863 -0.14,2.679 -0.32,4.171 -0.056,0.459 0.074,0.86 -0.004,1.238 0.023,0.06 0.034,0.124 0.022,0.192 -0.015,0.081 -0.027,0.162 -0.037,0.242 -0.021,0.14 -0.04,0.279 -0.075,0.419 -0.008,0.036 -0.026,0.066 -0.044,0.098 C 14.08,1.847 12.62,2.026 11.548,3.367 9.579,5.83 8.692,9.665 8.821,14.114 8.64,14.536 8.631,13.467 8.019,13.792 6.668,13.939 5.578,14.345 4.17,14.434 3.746,14.386 3.756,14.769 3.688,15.075 3.048,14.528 2.729,13.327 3.027,12.316 2.971,12.215 2.951,12.093 2.991,11.974 3.938,9.157 6.088,7.182 7.725,6.021 7.8,5.968 7.886,5.942 7.971,5.942 c 0.016,0 0.031,0.01 0.048,0.012 C 8.614,5.42 9.338,5.016 9.782,4.33 8.079,4.071 7.176,5.999 5.773,6.575 5.167,7.91 3.976,8.66 2.879,9.505 2.871,9.519 2.877,9.536 2.867,9.549 c -0.198,0.264 -0.336,0.56 -0.48,0.873 -0.133,0.287 -0.272,0.583 -0.462,0.862 -0.042,1.346 0.05,2.556 0.263,3.646 0.954,0.836 2.166,0.542 3.448,0.229 0.703,-0.172 1.424,-0.347 2.135,-0.347 0.24,0 0.478,0.019 0.714,0.065 0.009,0.002 0.015,0.008 0.023,0.01 0.121,-0.028 0.223,-0.073 0.313,-0.132 0.524,0.667 0.736,1.649 1.533,2.045 h 0.15 c 0.034,0 0.064,0.014 0.086,0.037 0.076,-0.006 0.15,-0.012 0.155,0.003 -0.349,-1.208 -1.851,-1.523 -1.443,-3.208 0.136,-0.564 1.43,-1.387 2.085,-1.604 1.611,-0.533 4.402,-0.687 6.094,-0.48 1.707,0.208 4.004,2.002 3.689,3.848 -0.35,2.041 -4.414,2.603 -6.575,2.406 -1.867,-0.17 -3.076,-0.84 -4.002,-0.807 -10e-4,10e-4 0,0.002 -10e-4,0.003 2.351,1.286 5.605,1.572 8.786,0.738 0.059,-0.015 0.117,-0.017 0.173,-0.008 0.241,-0.114 0.546,-0.165 0.817,-0.247 0.313,-0.917 1.323,-1.135 1.764,-1.924 0.139,-0.688 -0.123,-1.271 -0.16,-1.925 m 8.499,0.123 c 0.092,0.116 0.133,0.269 0.083,0.42 -0.267,0.804 -0.783,1.366 -1.533,1.671 -1.591,0.648 -3.997,-0.058 -5.625,-0.88 -0.089,2.219 -1.618,2.999 -3.537,3.387 -0.053,0.1 -0.145,0.179 -0.264,0.21 C 16.09,19.481 12.472,19.125 9.912,17.609 9.831,17.561 9.778,17.487 9.743,17.406 8.871,17.073 8.039,16.447 8.168,15.524 7.423,15.431 6.597,15.619 5.796,15.815 4.398,16.155 2.953,16.508 1.735,15.432 1.708,15.407 1.708,15.37 1.69,15.339 0.511,14.671 0.64,12.196 1.421,11.143 1.422,11.089 1.423,11.034 1.455,10.986 1.626,10.742 1.75,10.473 1.882,10.188 2.033,9.863 2.188,9.526 2.424,9.214 2.436,9.199 2.452,9.191 2.467,9.179 4.165,5.486 8.389,4.318 10.745,1.283 c 0.378,-0.21 1.109,-0.068 1.444,-0.321 0.377,-0.455 0.574,-1.091 0.946,-1.551 10e-4,-0.02 -0.003,-0.04 0.002,-0.06 0.028,-0.116 0.044,-0.232 0.06,-0.348 0.013,-0.091 0.026,-0.183 0.043,-0.274 0.007,-0.035 0.035,-0.055 0.05,-0.085 -0.063,-0.921 -0.342,-1.626 -0.459,-2.493 -2.437,0.035 -5.141,-3.023 -3.69,-5.293 0.849,-1.327 5.098,-1.764 7.539,-1.443 2.81,0.369 5.636,1.954 5.933,3.207 0.788,3.327 -3.428,3.403 -5.453,3.208 -0.437,1.225 0.069,2.646 0,4.01 1.136,0.789 2.489,1.359 3.368,2.405 0.426,0.002 0.916,-0.06 1.123,0.16 0.634,1.128 2.325,1.301 3.369,2.245 0.37,0.336 0.788,1.083 1.283,1.605 1.048,1.104 1.645,2.089 2.566,3.208 1.048,1.274 2.152,2.325 1.602,4.292 m 3.049,0.518 c 0.005,-0.22 -0.077,-0.351 -0.161,-0.481 0.232,-0.833 2.405,-0.983 2.406,0.161 -0.379,0.502 -1.527,0.639 -2.245,0.32 M 29.51,1.443 c 0.378,-0.494 2.292,-0.852 2.566,0 -0.382,0.618 -2.333,1.05 -2.566,0 M 14.113,23.095 c 0.339,1.64 -0.031,3.912 -1.123,4.651 -1.349,-1.002 0.077,-3.993 1.123,-4.651 M 0.802,11.868 c -0.825,0.621 -3.496,0.883 -3.69,-0.481 0.74,-0.774 3.493,-0.737 3.69,0.481 m 5.453,8.5 C 6.51,21.926 5.217,23.944 3.688,23.736 3.92,21.989 4.615,20.707 6.255,20.368 m 19.406,4.812 c -1.676,-0.104 -3.055,-1.311 -2.726,-2.887 1.709,0.161 2.419,1.322 2.726,2.887" style="fill:#000000;fill-opacity:1;fill-rule:nonzero;stroke:none" transform="matrix(1.3333333,0,0,-1.3333333,71.054,291.03907)" clip-path="url(#clipPath320)" />
  </g>
</svg>
