<?xml version="1.0" encoding="UTF-8"?>
<svg id="web_icons_3-4_Image" xmlns="http://www.w3.org/2000/svg" viewBox="0 0 26.95 21.9">
  <g id="heart_love">
    <path fill-rule="evenodd" d="M26.72,4.04C25.44-.6,18.03-1.17,14.38,1.95c-.86.73-1.17,1.62-1.92,2.73-.85-2.37-2.42-4-5.13-4.17C3.2.26.53,3,.1,6.28c-.89,6.93,4.33,10.25,8.02,12.83,1.94,1.36,4.06,3.13,5.93,2.73.65-.4-.53-1.16-.16-1.28,2.6-1.24,5.04-2.72,7.22-4.65,1.99-1.77,4.33-4.12,5.29-6.58.52-1.33.75-3.74.32-5.29ZM24.64,9.17c-.92,2.04-3.29,4.35-5.29,6.09-2.19,1.92-4.77,3.47-6.58,4.81C8.74,17.33,1.05,13.79,1.71,6.76c.22-2.35,2.65-5.23,6.25-4.49,2.08.43,2.63,2.56,3.69,4.33.31.73.95-.33.96.32.3.35.47.81,1.28.64.88-.42.14-1.22.16-2.08C15.4.95,25.11.03,25.28,6.12c.03.91-.27,2.23-.64,3.05Z" />
  </g>
</svg>
