<?xml version="1.0" encoding="UTF-8" standalone="no"?>
<!-- Created with Inkscape (http://www.inkscape.org/) -->
<svg version="1.1" id="svg1" width="34.513184" height="34.057022" viewBox="0 0 34.513185 34.057021"    xmlns="http://www.w3.org/2000/svg" xmlns:svg="http://www.w3.org/2000/svg">
  <defs id="defs1">
    <clipPath clipPathUnits="userSpaceOnUse" id="clipPath328">
      <path d="M 0,770 H 1300 V 0 H 0 Z" transform="translate(-1056.7002,-630.86722)" id="path328" />
    </clipPath>
  </defs>
  <g id="layer-MC0"   transform="translate(-1378.7769,-170.43086)">
    <path id="path327" d="m 0,0 c -1.118,-1.021 -2.284,-1.993 -3.048,-3.368 -1.064,-1.203 -2.836,-1.852 -4.65,-2.246 -0.367,-0.079 -0.737,-0.338 -1.123,-0.321 -2.153,0.099 -3.802,2.069 -3.529,4.491 0.767,0.289 0.964,-1.244 1.283,-1.924 1.13,-0.474 1.864,-1.344 3.369,-1.444 0.413,0.039 -0.221,0.276 0,0.642 2.07,-0.257 2.642,1.771 4.17,3.207 0.741,0.697 1.84,1.112 2.566,1.925 0.645,0.721 1.416,1.817 1.443,2.726 C 0.531,5.39 -1.194,6.729 -2.245,8.02 -2.527,7.8 -3.094,7.864 -3.446,7.716 -3.478,7.716 -3.508,7.719 -3.538,7.711 -3.665,7.679 -3.792,7.67 -3.919,7.659 -4.054,7.647 -4.188,7.635 -4.321,7.608 -4.379,7.597 -4.429,7.57 -4.472,7.537 H -4.651 C -5.439,6.901 -6.55,6.2 -7.538,5.453 -8.402,4.799 -9.4,3.185 -10.425,4.17 c 0.067,0.585 0.734,1.141 1.283,1.603 0.544,0.459 1.352,0.795 1.924,1.283 1.324,1.128 2.546,2.806 4.01,2.887 2.775,0.153 3.334,-2.961 5.133,-4.49 C 2.284,2.633 0.718,1.74 0,0 m -12.831,-4.973 c 0.793,-0.49 1.639,-0.928 2.085,-1.763 -2.136,-0.58 -2.105,-3.199 -5.612,-2.727 -0.662,0.836 -1.256,1.737 -1.766,2.727 0.971,1.809 3.085,2.475 4.01,4.33 0.187,0.026 0.286,-0.035 0.321,-0.16 -0.028,-1.151 0.775,-1.47 0.962,-2.407 m 5.133,1.765 c -0.97,-0.378 -1.625,0.937 -2.727,0.963 0.003,0.697 -0.496,0.893 -0.321,1.764 1.055,-0.123 1.517,-0.836 2.406,-1.123 0.114,-0.635 0.011,-1.486 0.642,-1.604 m 3.462,10.083 c 0.019,0 0.039,0.001 0.057,0.005 0.109,0.021 0.216,0.03 0.325,0.039 0.142,0.013 0.286,0.032 0.429,0.061 1.148,-0.769 1.743,-2.091 2.463,-3.292 -0.709,-2.337 -3.285,-2.809 -4.331,-4.811 -0.537,0.852 -0.862,1.918 -1.603,2.566 -1.078,-0.007 -1.391,0.748 -1.925,1.284 1.514,1.395 2.926,2.894 4.585,4.148 M -9.142,-7.538 c -0.05,-0.377 -0.254,-0.603 -0.16,-1.122 -2.056,-1.47 -4.697,-4.268 -8.019,-3.368 -0.809,0.217 -3.164,2.257 -3.529,3.207 -0.423,1.107 -0.116,2.609 0.322,3.848 -0.057,0.59 0.584,0.486 0.961,0.642 1.637,1.784 3.213,3.631 5.453,4.811 1.623,1.647 2.957,2.848 5.293,1.124 1.088,-0.804 2.943,-2.289 2.085,-4.01 -0.954,1.612 -2.47,2.663 -4.01,3.688 -0.885,-0.426 -2.406,-1.029 -3.689,-2.085 -1.631,-1.343 -3.633,-2.721 -4.651,-3.848 -0.364,-0.405 -0.881,-1.699 -0.802,-2.567 0.123,-1.348 1.959,-4.253 4.652,-3.688 1.542,0.81 3.277,1.426 4.49,2.565 0.466,0.485 0.94,1.677 1.765,1.283 0.655,0.077 0.023,-0.431 -0.161,-0.48 M 3.208,5.613 C 3.099,6.162 2.423,6.883 1.925,7.537 0.642,9.22 -1.634,12.443 -4.651,10.905 -5.944,10.246 -8.515,8.47 -9.623,7.056 -9.847,6.771 -9.881,6.257 -10.104,5.934 c -0.6,-0.869 -1.809,-1.073 -1.764,-2.246 -1.537,-0.75 -3.574,-1.888 -5.453,-3.368 -1.518,-1.194 -4.028,-2.916 -4.652,-4.33 -0.126,-0.287 -0.206,-1.06 -0.32,-1.604 -0.143,-0.68 -0.354,-1.479 -0.321,-1.924 0.084,-1.122 1.274,-3.345 1.925,-4.171 0.48,-0.609 2.234,-2.195 3.208,-2.405 3.383,-0.731 4.138,2.117 6.576,2.726 0.953,1.546 3.354,2.364 3.367,4.33 1.973,0.464 3.769,1.513 5.293,3.048 0.658,0.664 1.07,1.684 1.764,2.566 1.099,1.399 2.683,2.358 3.208,3.529 0.362,0.809 0.675,2.545 0.481,3.528" style="fill:#000000;fill-opacity:1;fill-rule:nonzero;stroke:none" transform="matrix(1.3333333,0,0,-1.3333333,1408.9336,185.5104)" clip-path="url(#clipPath328)" />
  </g>
</svg>
