<?xml version="1.0" encoding="UTF-8" standalone="no"?>
<!-- Created with Inkscape (http://www.inkscape.org/) -->

<svg
   version="1.1"
   id="svg1"
   width="39.998993"
   height="40.562866"
   viewBox="0 0 39.998994 40.562864"
   xmlns="http://www.w3.org/2000/svg"
   xmlns:svg="http://www.w3.org/2000/svg">
  <defs
     id="defs1">
    <clipPath
       clipPathUnits="userSpaceOnUse"
       id="clipPath112">
      <path
         d="M 0,770 H 1300 V 0 H 0 Z"
         transform="translate(-313.88381,-196.7217)"
         id="path112" />
    </clipPath>
  </defs>
  <g
     id="layer-MC0"
     transform="translate(-398.73732,-727.44469)">
    <path
       id="path111"
       d="M 0,0 C 0.053,1.294 2.598,2.985 2.986,1.147 2.894,-0.049 0.88,-0.334 0,0 m -1.837,1.378 c -0.114,-1.339 0.066,-2.383 0.459,-3.215 2.819,-2.086 6.636,-0.204 6.661,2.525 0.036,3.987 -5.574,3.85 -7.12,0.69 m 15.484,19.591 -0.09,0.233 c -0.289,0.751 -0.589,1.529 -1.143,2.187 -0.008,0.009 -0.019,0.014 -0.028,0.022 l 0.017,0.018 c -2.102,7.113 -12.059,3.76 -16.767,1.147 -2.913,-1.617 -5.647,-3.922 -5.512,-5.972 1.713,0.282 2.813,2.174 4.594,3.445 4.011,2.867 10.727,5.282 15.847,2.527 0.451,-0.522 0.696,-1.251 1.224,-1.696 0.003,-0.004 0.003,-0.009 0.006,-0.013 0.467,-0.553 0.728,-1.235 1.006,-1.957 l 0.105,-0.27 c 0.016,-0.039 0.05,-0.062 0.074,-0.093 C 14.775,15.378 13.169,8.505 9.876,5.972 9.269,5.505 6.684,3.574 6.202,6.202 c 2.942,2.951 6.418,5.372 5.742,11.943 -0.587,0.869 -0.892,2.018 -1.149,3.216 -1.884,1.682 -2.714,3.355 -6.201,2.985 -4.59,-0.488 -10.308,-4.162 -11.255,-7.579 1.907,0.329 3.055,2.665 5.283,3.904 2.059,1.144 5.609,2.806 8.039,2.067 1.39,-0.424 2.613,-2.112 2.985,-2.986 C 10.998,16.583 9.885,12.537 7.809,10.104 6.503,8.576 4.456,8.022 3.904,6.43 4.607,5.053 4.836,3.544 6.202,3.215 c 2.034,-0.489 4.734,1.677 5.971,2.987 3.35,3.543 3.961,10.845 1.474,14.767 M -7.12,15.159 c -0.03,-1.254 1.98,-0.469 2.986,-0.689 -0.583,-0.411 0.228,-2.219 -0.689,-2.298 -2.437,0.552 -6.103,-0.131 -8.499,0.46 0.353,3.094 0.203,6.688 0.23,10.106 l -0.005,0.015 c 0.04,0.013 0.082,0.013 0.117,0.04 l 0.108,0.084 c 0.177,0.139 0.299,0.235 0.424,0.353 0.002,0.002 0.003,0.005 0.005,0.007 l 0.04,-0.039 c 0.316,-0.01 0.505,0.109 0.689,0.231 0.36,-1.556 -0.927,-4.756 1.149,-4.595 0.212,1.288 0.799,4.931 -0.459,5.512 -0.366,0.349 -1.879,-0.101 -2.068,-0.69 l 0.01,-0.004 c -0.07,-0.059 -0.147,-0.12 -0.242,-0.194 l -0.067,-0.052 c -0.521,-0.124 -0.639,-0.408 -0.849,-0.897 -1.139,-2.649 -0.24,-8.391 -0.46,-11.254 3.548,-0.307 8.441,-0.404 11.484,-0.46 0.265,1.458 0.813,3.726 0.23,5.282 -1.11,0.282 -3.976,0.501 -4.134,-0.918"
       style="fill:#000000;fill-opacity:1;fill-rule:nonzero;stroke:none"
       transform="matrix(1.3333333,0,0,-1.3333333,418.51173,764.37107)"
       clip-path="url(#clipPath112)" />
  </g>
</svg>
