<?xml version="1.0" encoding="UTF-8" standalone="no"?>
<!-- Created with Inkscape (http://www.inkscape.org/) -->
<svg version="1.1" id="svg1" width="28.419708" height="42.66785" viewBox="0 0 28.419709 42.667848"    xmlns="http://www.w3.org/2000/svg" xmlns:svg="http://www.w3.org/2000/svg">
  <defs id="defs1">
    <clipPath clipPathUnits="userSpaceOnUse" id="clipPath200">
      <path d="M 0,770 H 1300 V 0 H 0 Z" transform="translate(-69.728501,-342.83111)" id="path200" />
    </clipPath>
  </defs>
  <g id="layer-MC0"   transform="translate(-78.762289,-539.31888)">
    <path id="path199" d="M 0,0 C -0.661,1.137 -1.285,2.208 -1.666,3.451 -1.697,3.554 -1.804,3.61 -1.909,3.58 -2.011,3.548 -2.068,3.438 -2.037,3.336 -1.643,2.05 -0.978,0.91 -0.335,-0.194 l 0.103,-0.177 c 0.036,-0.064 0.101,-0.097 0.168,-0.097 0.033,0 0.066,0.008 0.097,0.026 0.092,0.053 0.124,0.173 0.07,0.265 z m 0.312,7.438 c -2.964,-0.247 -6.868,-0.009 -8.654,0.941 0.492,0.925 1.93,2.039 3.574,2.257 0.39,0.052 1.057,-0.186 1.505,-0.188 2.697,-0.01 6.565,0.938 8.278,-0.564 C 5.055,7.934 2.317,7.605 0.312,7.438 M 0.876,-6.482 C -0.407,-7.328 -2.881,-7.453 -4.391,-6.67 l -0.026,-0.009 c -0.037,0.239 -0.121,0.451 -0.208,0.656 -0.047,0.11 -0.088,0.215 -0.122,0.321 0.226,0.386 0.909,0.313 1.108,0.724 0.261,-0.043 0.318,-0.291 0.547,-0.366 0.151,-0.253 0.326,-0.522 0.607,-0.717 0.049,-0.035 0.107,-0.049 0.163,-0.049 0.091,0 0.18,0.042 0.237,0.123 0.09,0.131 0.057,0.309 -0.073,0.4 -0.211,0.146 -0.349,0.379 -0.494,0.626 l -0.043,0.073 c -0.013,0.022 -0.032,0.037 -0.048,0.054 l 0.045,0.044 v 0.565 c 0.282,0.282 0.792,0.337 0.94,0.752 0.82,-0.121 0.903,-0.978 1.694,-1.129 0.508,0.523 -0.379,1.244 -0.565,1.694 0.216,0.787 0.945,1.062 1.129,1.882 -0.853,-0.027 -1.361,-0.396 -2.069,-0.566 -0.409,0.984 -1.313,1.773 -0.377,2.635 -0.133,0.436 -0.883,-0.482 -1.128,0 -0.435,1.443 -1.083,2.678 -1.692,3.946 L -4.768,4.992 V 5.558 C -1.685,5.159 2.417,5.231 4.638,6.31 4.785,6.268 4.857,6.151 4.826,5.933 3.535,1.769 1.703,-1.854 0.876,-6.482 m -5.079,2.633 C -4.437,-4.241 -4.75,-4.556 -5.144,-4.79 l -0.027,-0.009 c -10e-4,0.003 0,0.005 -10e-4,0.006 -0.114,0.318 -0.266,0.701 -0.383,0.957 -0.016,0.094 -0.047,0.172 -0.153,0.176 l -0.009,-0.028 c -0.004,0 -0.008,0 -0.012,0 -0.079,0.12 -0.13,0.229 -0.184,0.375 -0.004,0.011 -0.009,0.027 -0.014,0.039 l 0.031,-0.011 c 0.055,0.385 0.509,0.369 0.564,0.754 0.835,0.019 0.586,-1.046 1.129,-1.318 m 0.752,3.01 c 0.648,-0.292 0.878,-1.004 1.129,-1.692 -0.788,0.135 -0.509,-0.746 -0.941,-0.754 -0.888,-0.015 -1.266,2.036 -0.188,2.446 M -7.589,-6.295 C -7.572,-1.575 -8.832,1.87 -8.906,6.497 -7.996,5.966 -6.792,5.728 -5.52,5.558 -5.488,5.275 -5.587,4.862 -5.332,4.805 -5.149,3.044 -4.531,1.718 -3.827,0.479 -4.021,-0.017 -4.573,-0.155 -4.768,-0.65 -5.654,-0.159 -5.685,1.191 -6.46,1.795 L -6.509,1.731 -6.612,1.936 C -6.923,2.548 -7.244,3.184 -7.673,3.735 -7.757,3.846 -7.916,3.866 -8.025,3.78 -8.135,3.696 -8.155,3.537 -8.07,3.428 -7.67,2.912 -7.361,2.3 -7.061,1.707 l 0.054,-0.105 -0.018,0.004 c 0.17,-1.335 1.044,-1.965 1.317,-3.198 -0.271,-0.105 -0.459,-0.292 -0.564,-0.563 h -0.306 c -0.017,0.042 -0.034,0.084 -0.049,0.132 -0.021,0.064 -0.089,0.097 -0.153,0.076 -0.064,-0.02 -0.099,-0.088 -0.078,-0.153 0.032,-0.096 0.072,-0.187 0.123,-0.277 l -0.102,0.033 V -2.72 l 0.08,-0.093 c -0.139,-0.111 -0.27,-0.224 -0.392,-0.341 -0.123,-0.121 -0.125,-0.319 -0.005,-0.443 0.061,-0.061 0.142,-0.093 0.223,-0.093 0.079,0 0.158,0.029 0.218,0.088 0.046,0.044 0.099,0.086 0.149,0.129 h 0.272 c 0.056,-0.155 0.111,-0.296 0.222,-0.457 0.001,-0.003 0.001,-0.004 0.001,-0.006 0,-0.03 0.006,-0.059 0.016,-0.089 0.009,-0.067 0.025,-0.126 0.065,-0.163 0.101,-0.234 0.217,-0.53 0.309,-0.787 0.004,-0.012 0.016,-0.017 0.022,-0.028 0.06,-0.29 0.102,-0.6 0.325,-0.726 l 0.026,0.007 c 0.044,-0.183 0.114,-0.352 0.183,-0.514 0.064,-0.151 0.118,-0.294 0.151,-0.438 -0.553,-0.272 -1.872,0.248 -2.617,0.379 m 6.396,19.377 c -4.011,-0.312 -7.842,-2.315 -9.406,-4.139 -0.254,-3.55 0.402,-6.854 0.564,-10.346 0.091,-1.939 -0.261,-4.304 0.377,-5.454 0.886,-1.601 6.296,-2.605 8.465,-2.448 1.646,0.12 2.56,1.031 3.95,1.318 0.972,2.861 1.632,5.791 2.634,9.03 0.672,2.174 2.665,7.144 1.881,9.593 -0.783,2.447 -5.172,2.702 -8.465,2.446 m 9.029,4.515 c 1.409,-0.318 2.562,1.011 2.822,2.444 -1.814,0.06 -2.817,-0.693 -2.822,-2.444 m -5.831,2.069 c 0.709,0.482 1.099,1.283 1.316,2.257 C 2.134,22.49 1.394,21.131 1.252,20.041 1.626,20.04 1.492,19.528 2.005,19.666 m 5.831,3.01 C 6.409,22.751 5.221,21.7 5.767,20.418 c 1.452,-0.01 1.986,0.898 2.069,2.258 M 2.193,17.408 c 0.701,0.356 1.052,1.888 2.069,1.317 C 4.379,17.848 3.219,17.269 3.886,16.468 3.549,15.827 2.368,16.079 2.193,16.656 1.46,16.446 0.832,16.136 0.312,15.715 c -0.691,0.317 -1.184,0.831 -1.616,1.407 -0.022,0.103 -0.021,0.208 -0.006,0.313 1.01,0.453 2.38,-0.062 3.503,-0.027 M -0.064,14.21 c 0.434,0.256 0.838,0.54 1.504,0.565 -0.118,-0.808 0.168,-1.212 0.565,-1.504 0.89,-0.139 0.612,0.892 1.316,0.939 0.859,0.083 2.072,-0.189 2.634,0.188 0.464,0.748 0.085,2.023 -0.188,2.633 0.124,0.567 0.723,0.657 0.565,1.505 -0.91,0.911 -1.545,1.761 -2.634,1.693 -1.16,-0.07 -2.583,-2.527 -5.079,-1.504 -0.081,-0.359 -0.406,-0.472 -0.377,-0.941 l 0.085,-0.028 c -0.002,-0.005 -0.008,-0.007 -0.009,-0.011 -0.056,-0.216 -0.095,-0.464 -0.035,-0.727 l -0.041,0.013 c -0.854,-1.041 0.498,-2.63 1.694,-2.821" style="fill:#000000;fill-opacity:1;fill-rule:nonzero;stroke:none" transform="matrix(1.3333333,0,0,-1.3333333,92.971333,569.55853)" clip-path="url(#clipPath200)" />
  </g>
</svg>
