<?xml version="1.0" encoding="UTF-8" standalone="no"?>
<!-- Created with Inkscape (http://www.inkscape.org/) -->
<svg version="1.1" id="svg1" width="26.180239" height="38.872696" viewBox="0 0 26.180239 38.872694"    xmlns="http://www.w3.org/2000/svg" xmlns:svg="http://www.w3.org/2000/svg">
  <defs id="defs1">
    <clipPath clipPathUnits="userSpaceOnUse" id="clipPath346">
      <path d="M 0,770 H 1300 V 0 H 0 Z" transform="translate(-504.49951,-631.93552)" id="path346" />
    </clipPath>
  </defs>
  <g id="layer-MC0"   transform="translate(-649.97039,-166.81438)">
    <path id="path345" d="m 0,0 c -0.713,-5.21 -5.337,-8.084 -6.576,-12.992 -1.273,0.839 -1.986,2.357 -2.887,3.69 -0.862,1.274 -2.02,2.468 -2.726,3.849 -0.605,1.182 -0.745,2.908 -1.124,4.65 -0.353,1.629 -0.991,3.248 -0.801,4.812 0.223,1.836 1.905,3.768 3.208,4.811 1.198,0.958 3.959,2.188 6.094,1.605 C -3.24,9.995 -1.245,7.85 -0.642,6.576 0.205,4.785 0.268,1.958 0,0 m 1.924,6.896 c -0.708,2.162 -3.859,5.305 -6.255,5.934 -0.857,0.225 -1.355,0.092 -2.405,0 -1.109,-0.097 -2.344,-0.207 -3.368,-0.642 -3.174,-1.345 -6.008,-5.646 -6.736,-8.66 -0.513,-2.119 0.158,-5.437 0.801,-6.897 0.839,-1.903 2.85,-4.188 4.491,-6.574 0.583,-0.848 1.411,-2.037 2.406,-3.208 0.892,-1.052 1.786,-2.99 2.566,-3.047 1.847,-0.138 3.351,4.862 4.009,6.094 0.769,1.438 2.032,2.729 2.887,4.331 0.843,1.576 1.667,3.22 2.085,5.131 C 2.875,1.507 2.479,5.2 1.924,6.896 M -8.341,0.16 c -0.59,0.624 -0.638,2.247 -0.159,3.047 1.136,0.611 2.814,0.797 3.207,-0.48 0.468,-1.525 -0.943,-3.425 -3.048,-2.567 m -1.603,3.849 c -1.276,-1.891 -0.981,-5.307 1.603,-5.934 3.458,-0.839 5.425,1.793 4.973,5.453 -1.52,3.234 -5.038,2.759 -6.576,0.481" style="fill:#000000;fill-opacity:1;fill-rule:nonzero;stroke:none" transform="matrix(1.3333333,0,0,-1.3333333,672.666,184.086)" clip-path="url(#clipPath346)" />
  </g>
</svg>
