<?xml version="1.0" encoding="UTF-8" standalone="no"?>
<!-- Created with Inkscape (http://www.inkscape.org/) -->
<svg version="1.1" id="svg1" width="40.432373" height="32.75267" viewBox="0 0 40.432374 32.752669"    xmlns="http://www.w3.org/2000/svg" xmlns:svg="http://www.w3.org/2000/svg">
  <defs id="defs1">
    <clipPath clipPathUnits="userSpaceOnUse" id="clipPath344">
      <path d="M 0,770 H 1300 V 0 H 0 Z" transform="translate(-570.66311,-622.15231)" id="path344" />
    </clipPath>
  </defs>
  <g id="layer-MC0"   transform="translate(-724.28562,-170.5958)">
    <path id="path343" d="m 0,0 c -0.261,-0.579 -0.788,0.481 -1.122,0.801 -0.482,0.462 -1.067,0.848 -1.283,1.283 -0.4,0.296 -1.004,0.388 -1.444,0.643 0.084,4.787 -0.093,9.316 -0.16,13.952 1.605,-1.015 3.431,-1.807 4.49,-3.367 C 0.558,8.638 -0.049,4.646 0,0 m -12.188,-2.566 c -1.909,1.834 -4.324,3.161 -6.255,4.971 0.382,5.199 0.143,10.864 -0.642,15.397 -0.045,0.287 0.151,0.329 0.161,0.16 1.861,-1.505 4.012,-2.724 6.094,-4.009 -0.081,-5.116 -0.647,-10.867 -0.161,-15.557 2.149,3.625 0.852,10.695 1.444,15.877 2.627,0.314 3.882,1.999 6.095,2.727 0.047,-5.191 0.099,-10.378 0.32,-15.396 -2.867,-0.875 -5.091,-2.394 -7.056,-4.17 m -7.539,5.773 c -0.283,-0.935 -1.953,-1.796 -2.726,-2.406 -1.01,-0.796 -1.809,-1.67 -2.887,-2.244 -0.08,5.479 -0.337,10.782 -0.481,16.198 2.08,0.753 3.568,2.099 5.453,3.047 0.514,-2.275 0.642,-6.764 0.641,-10.265 0,-1.518 0.28,-3.409 0,-4.33 M 2.728,13.633 c -0.098,0.384 -0.656,0.921 -1.124,1.442 -1.432,1.599 -2.151,1.611 -4.009,2.727 -0.911,0.548 -1.64,1.704 -2.567,1.763 -1.046,0.07 -2.449,-1.087 -3.687,-1.763 -0.378,-0.205 -3.329,-1.938 -3.529,-1.924 -0.007,0 -1.158,0.932 -1.445,1.122 -1.443,0.959 -3.527,2.773 -4.971,2.887 -1.5,0.118 -2.394,-0.54 -3.368,-1.122 -1.772,-1.061 -3.515,-2.639 -5.293,-3.208 -0.258,-5 -0.232,-11.064 0,-16.2 0.05,-1.075 -0.082,-2.56 0.802,-3.207 1.42,-0.126 2.374,1.138 3.368,1.924 1.072,0.849 2.147,1.69 3.208,2.407 -0.183,-0.817 0.645,-0.374 0.963,-0.321 1.445,-1.168 3.335,-2.029 4.651,-3.369 0.649,-0.659 0.663,-1.33 1.282,-1.442 0.82,-0.148 2.273,1.041 3.049,1.603 2.023,1.474 3.771,2.535 6.254,3.369 2.111,-1.263 2.64,-4.295 5.452,-4.652 0.835,0.854 0.304,1.64 0.322,2.566 0.042,2.347 0.187,5.428 0.319,8.02 0.144,2.776 0.744,5.7 0.323,7.378" style="fill:#000000;fill-opacity:1;fill-rule:evenodd;stroke:none" transform="matrix(1.3333333,0,0,-1.3333333,760.88413,197.13027)" clip-path="url(#clipPath344)" />
  </g>
</svg>
