<?xml version="1.0" encoding="UTF-8" standalone="no"?>
<!-- Created with Inkscape (http://www.inkscape.org/) -->
<svg version="1.1" id="svg1" width="34.666382" height="25.107483" viewBox="0 0 34.666383 25.107482"    xmlns="http://www.w3.org/2000/svg" xmlns:svg="http://www.w3.org/2000/svg">
  <defs id="defs1">
    <clipPath clipPathUnits="userSpaceOnUse" id="clipPath218">
      <path d="M 0,770 H 1300 V 0 H 0 Z" transform="translate(-744.97852,-412.45901)" id="path218" />
    </clipPath>
  </defs>
  <g id="layer-MC0"   transform="translate(-971.49203,-454.56263)">
    <path id="path217" d="M 0,0 C -4.916,-0.254 -10.187,-1.565 -14.439,-0.271 -7.491,-0.039 -0.4,1.485 6.812,0.546 4.886,-0.538 2.31,0.119 0,0 M 7.082,2.726 C 5.109,3.08 1.365,2.589 -1.635,2.452 -6.697,2.222 -12.254,2.259 -16.073,1.906 c -0.566,-1.187 -0.196,-2.855 0.272,-3.813 5.624,-0.696 13.457,-0.022 20.159,0.273 C 6.14,-1.557 8.093,-2.078 9.534,-1.09 9.992,0.878 8.933,2.391 7.082,2.726 M -9.536,6.537 c -1.462,-0.129 -3.381,-0.243 -4.358,0.819 0.22,0.051 0.272,0.273 0.545,0.273 4.015,0.539 11.499,0.234 16.89,0 C 4.608,7.582 6.361,8.264 6.812,6.812 1.829,6.178 -4.535,6.985 -9.536,6.537 M 7.082,9.263 C 0.469,9.152 -7.647,9.499 -14.711,9.809 -15.822,9.104 -16.102,7.566 -16.073,5.722 -13.148,3.771 -8.164,4.7 -3.542,4.903 c 2.115,0.094 4.442,0 6.538,0 2.048,0 4.708,-0.661 5.721,1.092 0.707,1.259 -0.425,3.017 -1.635,3.268 m -20.976,5.176 c 6.078,-0.134 14.207,0.402 20.431,0 -1.269,-1.865 -4.512,-1.09 -7.083,-1.09 -4.562,0 -9.645,-0.1 -13.621,0.546 -0.044,0.316 0.061,0.485 0.273,0.544 m 4.631,-2.724 c 3.373,-0.149 6.769,-0.437 9.806,-0.273 2.714,0.149 5.816,-0.538 8.174,0.544 0.57,1.14 0.063,3.248 -0.545,4.086 -7.854,0.449 -15.499,-0.109 -23.428,0.547 -1.162,-0.366 -0.977,-3.278 -0.545,-4.359 1.933,-0.995 4.238,-0.443 6.538,-0.545" style="fill:#000000;fill-opacity:1;fill-rule:evenodd;stroke:none" transform="matrix(1.3333333,0,0,-1.3333333,993.30467,476.72133)" clip-path="url(#clipPath218)" />
  </g>
</svg>
