<?xml version="1.0" encoding="UTF-8"?>
<svg id="web_icons_3-4_Image" xmlns="http://www.w3.org/2000/svg" viewBox="0 0 32 30.82">
  <g id="images">
    <path d="M14.21,16.56c-3.54-2.37-4.92,3.74-1.75,3.99,1.75.14,2.97-2.04,1.75-3.99ZM24.19,17.55c-3.92-.09-4.48,3.16-6.73,4.74-.81-.52-1.47-1.19-2.99-1-.85.2-.66,1.36-1.25,2.24-.71,1.07-1.59.95-1.5,2.24.05.77.7,1.32,1.5,1.99,1.74.05,3.91-.39,6.23-.5,2.71-.12,5.85.32,7.23-.5,2.17-1.28.28-4.04-.5-5.73-.62-1.36-1.1-2.62-1.99-3.49ZM30.42,12.82c-.49-.67-1.78-.55-2.49-1,.02-2.97-2.04-6.39-2.74-8.48-.47-1.39-.19-3.87-1.99-3.24C16.98,2.26,5.81,4.78,0,7.83c1.12,4.2,2.48,8.16,3.99,11.97.28.8,1.76.4,1.99,1.25.22,3.11-.58,7.22.75,9.22,5.65.91,12.21-.42,17.95,0,2.31.17,4.54,1.16,6.48,0,1.66-5.1.53-12.91-.75-17.45ZM6.48,13.07c-.47,1.28-.16,3.33-.25,4.99-1.21-.88-1.03-2.65-1.5-3.99-.68-1.96-1.74-3.77-2.74-5.24,5.8-3.01,14.48-3.14,20.45-5.98,1.03,2.04,1.44,4.71,1.99,7.23-1.27-.14-1.25-1.58-2.49-1.75-1.06.05-2.11.32-2.99-.75-1.38-.05-1.85.81-2.24,1.75-.61-.22-.56-1.1-1.5-1-1.95.46-2.43,2.39-2.99,4.24-2.55.03-3.98-.33-5.74.5ZM28.92,22.04c-.41.22.05.52,0,2-.02.48-.51,1.12-.5,1.5.03.88,1.02,1.73.5,2.74-6.72-1.33-14.77.35-20.95.25-.88-3.25.11-8.61-.25-12.97.21.05.24-.1.25-.25.13-.2.26-.4.25-.75,6.27,1.09,13.62.13,20.45.25-.97,2.15,1.52,6.56.25,7.23Z" />
  </g>
</svg>
