<?xml version="1.0" encoding="UTF-8" standalone="no"?>
<!-- Created with Inkscape (http://www.inkscape.org/) -->
<svg version="1.1" id="svg1" width="29.938599" height="38.690247" viewBox="0 0 29.938599 38.690245"    xmlns="http://www.w3.org/2000/svg" xmlns:svg="http://www.w3.org/2000/svg">
  <defs id="defs1">
    <clipPath clipPathUnits="userSpaceOnUse" id="clipPath260">
      <path d="M 0,770 H 1300 V 0 H 0 Z" transform="translate(-689.23142,-482.28221)" id="path260" />
    </clipPath>
  </defs>
  <g id="layer-MC0"   transform="translate(-892.41521,-354.23442)">
    <path id="path259" d="m 0,0 c -1.679,-4.651 -12.888,-5.676 -15.84,-1.44 -1.939,2.782 -1.18,7.215 -1.921,11.04 1.474,0.207 3.163,0.197 4.081,0.96 C -9.543,9.657 -3.414,10.746 -0.24,8.879 0.307,6.387 -0.15,2.89 0,0 m -6.24,12 h -5.281 c -0.253,3.027 1.514,5.133 4.321,4.32 0.613,-1.146 0.999,-2.521 0.96,-4.32 m -7.68,2.879 c 0.591,2.973 4.348,6.999 8.399,4.56 1.887,-1.134 2.086,-4.035 2.162,-7.439 -1.906,-0.189 -1.503,1.548 -1.921,2.64 -0.478,1.247 -0.973,2.231 -1.441,3.12 -3.95,1.053 -5.655,-0.988 -6.239,-4.321 -0.074,-0.423 0.403,-1.679 -0.72,-1.439 -0.574,0.027 -0.441,1.867 -0.24,2.879 m 15.36,-3.6 c -0.723,0.698 -1.815,0.447 -2.88,1.2 1.344,7.322 -5.364,11.814 -10.56,8.4 -2.346,-1.539 -3.418,-4.908 -3.359,-8.879 -2.133,0.132 -3.479,-0.521 -4.561,-1.44 0.811,-5.376 -0.17,-10.73 2.88,-14.161 1.711,-1.924 6.32,-3.547 9.84,-3.36 6.124,0.328 9.099,4.04 9.6,9.84 0.253,2.932 0.254,7.23 -0.96,8.4 m -12,-8.16 c -0.111,-0.82 0.77,-2.453 1.68,-2.879 0.677,1.043 1.649,2.134 1.44,3.119 -0.422,2 -2.839,1.839 -3.12,-0.24" style="fill:#000000;fill-opacity:1;fill-rule:nonzero;stroke:none" transform="matrix(1.3333333,0,0,-1.3333333,918.9752,383.62373)" clip-path="url(#clipPath260)" />
  </g>
</svg>
