<?xml version="1.0" encoding="UTF-8"?>
<svg id="web_icons_3-4_Image" xmlns="http://www.w3.org/2000/svg" viewBox="0 0 22.45 29.02">
  <g id="lock">
    <path d="M21.36,10.76c-.72-.7-1.82-.45-2.88-1.2C19.82,2.24,13.12-2.25,7.92,1.16c-2.35,1.54-3.42,4.91-3.36,8.88C2.43,9.91,1.08,10.56,0,11.48c.81,5.38-.17,10.73,2.88,14.16,1.71,1.92,6.32,3.55,9.84,3.36,6.12-.33,9.1-4.04,9.6-9.84.25-2.93.25-7.23-.96-8.4ZM6,7.16C6.59,4.19,10.35.16,14.4,2.6c1.89,1.13,2.09,4.04,2.16,7.44-1.91.19-1.5-1.55-1.92-2.64-.48-1.25-.97-2.23-1.44-3.12-3.95-1.05-5.66.99-6.24,4.32-.07.42.4,1.68-.72,1.44-.57-.03-.44-1.87-.24-2.88ZM13.68,10.04h-5.28c-.25-3.03,1.51-5.13,4.32-4.32.61,1.15,1,2.52.96,4.32ZM19.92,22.04c-1.68,4.65-12.89,5.68-15.84,1.44-1.94-2.78-1.18-7.22-1.92-11.04,1.47-.21,3.16-.2,4.08-.96,4.14.9,10.27-.19,13.44,1.68.55,2.49.09,5.99.24,8.88ZM9.36,18.92c-.11.82.77,2.45,1.68,2.88.68-1.04,1.65-2.13,1.44-3.12-.42-2-2.84-1.84-3.12.24Z" />
  </g>
</svg>
