<?xml version="1.0" encoding="UTF-8" standalone="no"?>
<!-- Created with Inkscape (http://www.inkscape.org/) -->

<svg
   version="1.1"
   id="svg1"
   width="39.999329"
   height="36.075832"
   viewBox="0 0 39.99933 36.075831"
   xmlns="http://www.w3.org/2000/svg"
   xmlns:svg="http://www.w3.org/2000/svg">
  <defs
     id="defs1">
    <clipPath
       clipPathUnits="userSpaceOnUse"
       id="clipPath228">
      <path
         d="M 0,770 H 1300 V 0 H 0 Z"
         transform="translate(-449.99901,-417.91601)"
         id="path228" />
    </clipPath>
  </defs>
  <g
     id="layer-MC0"
     transform="translate(-561.61998,-449.07882)">
    <path
       id="path227"
       d="m 0,0 c -1.296,-6.209 -6.141,-11.834 -12.895,-10.571 -1.752,0.327 -2.375,0.625 -4.694,2.247 -0.009,0.359 -0.264,0.472 -0.236,0.868 2.545,1.128 4.119,-0.999 6.819,-0.973 8.064,0.076 10.671,13.276 4.789,18.126 -0.013,0.016 -0.021,0.035 -0.037,0.05 -0.294,0.266 -0.635,0.587 -0.938,0.936 -0.058,0.067 -0.132,0.104 -0.211,0.127 -5.663,4.651 -17.687,-1.978 -14.562,-10.229 0.508,-0.385 1.28,-0.506 2.192,-0.486 -0.817,-1.621 -2.419,-2.453 -3.166,-4.14 -1.261,1.742 -2.665,3.344 -4.141,4.869 0.793,0.629 1.719,-0.303 2.679,0.244 -0.12,1.947 0.233,5.211 1.156,6.933 0.061,0.035 0.117,0.082 0.161,0.143 1.973,2.699 6.226,7.059 12.557,5.927 3.061,-0.549 6.546,-3.032 8.671,-6.181 C -0.635,6.08 0.678,3.244 0,0 m -1.003,8.465 c -2.271,3.365 -6.026,6.025 -9.343,6.619 -5.026,0.9 -9.97,-1.411 -13.569,-6.334 C -23.978,8.665 -24,8.565 -24.004,8.466 -25.133,7.078 -25.798,5.228 -25.619,2.529 -26.81,2.422 -28.569,2.882 -28.784,1.8 c 0.604,-2.807 3.304,-5.625 6.088,-7.064 2.003,1.974 4.296,3.66 5.358,6.577 -0.933,0.608 -3.416,-0.332 -3.653,0.972 -0.086,6.986 7.229,10.552 13.151,7.795 l 0.005,0.005 C -7.513,9.717 -7.164,9.387 -6.86,9.111 L -6.866,9.105 c 0.801,-1.788 2.24,-3.212 2.435,-5.601 0.176,-2.137 -0.756,-4.255 -0.73,-6.576 -1.263,-1.29 -2.158,-3.219 -4.384,-3.653 -2.903,-0.566 -5.378,1.037 -7.55,1.949 -1.098,-0.769 -2.223,-1.511 -2.435,-3.167 0.27,-0.46 0.666,-0.796 1.17,-1.025 0.036,-0.068 0.085,-0.131 0.152,-0.178 2.334,-1.635 3.086,-2.058 5.125,-2.438 0.719,-0.133 1.419,-0.198 2.097,-0.198 6.298,0 10.731,5.525 11.994,11.572 0.751,3.597 -0.679,6.703 -2.011,8.675"
       style="fill:#000000;fill-opacity:1;fill-rule:nonzero;stroke:none"
       transform="matrix(1.3333333,0,0,-1.3333333,599.99867,469.44533)"
       clip-path="url(#clipPath228)" />
  </g>
</svg>
