<?xml version="1.0" encoding="UTF-8" standalone="no"?>
<!-- Created with Inkscape (http://www.inkscape.org/) -->
<svg version="1.1" id="svg1" width="38.067566" height="42.666748" viewBox="0 0 38.067567 42.666746"    xmlns="http://www.w3.org/2000/svg" xmlns:svg="http://www.w3.org/2000/svg">
  <defs id="defs1">
    <clipPath clipPathUnits="userSpaceOnUse" id="clipPath26">
      <path d="M 0,770 H 1300 V 0 H 0 Z" transform="translate(-502.05862,-68.470702)" id="path26" />
    </clipPath>
  </defs>
  <g id="layer-MC0"   transform="translate(-644.02653,-913.46574)">
    <path id="path25" d="M 0,0 C -0.405,0.461 -0.353,1.375 -0.865,1.729 -0.401,2.635 0.736,2.865 1.296,3.675 2.313,3.321 2.502,2.143 3.458,1.729 2.427,1.032 1.273,0.455 0,0 m 3.892,-0.434 c -1.753,-4.012 -3.94,-7.59 -6.486,-10.808 0.345,3.185 2.969,5.966 3.458,9.728 C 1.596,-0.875 2.74,-0.651 3.458,0 3.826,0.079 3.867,-0.169 3.892,-0.434 m -8.864,-13.187 c -2.469,3.297 -3.823,7.707 -6.054,11.242 2.979,0.095 7.447,-0.136 10.161,0.865 0.642,-2.008 -1.135,-3.863 -1.946,-5.837 -0.845,-2.058 -1.443,-4.201 -2.161,-6.27 m -6.054,15.134 c 2.47,0.63 5.808,0.39 8.863,0.432 L -2.174,1.987 C -2.097,1.974 -2.021,1.959 -1.944,1.95 L -1.946,1.945 c -0.049,-1.058 0.66,-1.358 0.649,-2.379 -3.415,-0.125 -8.057,-0.143 -10.377,-0.647 -0.042,0.956 0.208,1.647 0.648,2.594 m -2.162,-1.297 c -1.195,0.14 -3.27,0.566 -4.106,-0.216 v -0.059 c -0.06,0.029 -0.122,0.06 -0.197,0.106 0.534,1.663 2.082,2.313 2.517,4.078 0.11,0.086 0.255,0.153 0.434,0.219 0.023,0.008 0.045,0.017 0.067,0.026 l -0.012,-0.046 c 0.997,-0.517 1.598,-1.43 2.595,-1.946 -0.451,-0.703 -0.897,-1.409 -1.298,-2.162 m 2.513,5.88 c 1.45,-0.354 3.013,-0.287 4.523,-0.22 2.43,0.108 4.729,0.205 6.572,-1.318 C 0.328,3.78 -1.175,3.192 -1.913,2.617 -1.96,2.624 -2.008,2.632 -2.057,2.642 c -2.354,1.142 -6.131,-0.218 -8.536,0.383 -1.326,0.333 -1.66,1.144 -2.595,1.73 0.499,0.786 1.664,0.906 2.513,1.341 M 1.27,5.07 C 1.242,5.152 1.199,5.231 1.126,5.293 -1.029,7.118 -3.656,6.998 -6.197,6.888 -7.717,6.818 -9.15,6.755 -10.471,7.084 -10.679,7.136 -10.886,7.051 -11.003,6.888 -12.287,6.711 -13.904,5.839 -14.701,4.972 l 0.056,-0.044 C -14.676,4.917 -14.708,4.902 -14.74,4.893 -15,4.799 -15.288,4.685 -15.494,4.447 l -0.071,0.092 C -17.061,3.513 -18.477,2.406 -18.593,0 c 0.289,0.031 0.653,-0.88 0.866,-0.217 l -0.037,0.11 c 0.144,-0.094 0.278,-0.173 0.379,-0.219 0.916,-0.88 2.979,-0.611 4.63,-0.755 1.657,-3.893 3.46,-7.639 5.188,-11.458 -0.217,-0.002 -0.257,0.174 -0.432,0.217 10e-4,0.216 -0.175,0.256 -0.216,0.432 -1.541,1.744 -2.925,3.705 -4.324,5.619 -1.379,1.89 -2.539,4.156 -4.755,5.19 0.748,-2.396 2.522,-4.627 4.106,-6.919 1.515,-2.188 3.161,-4.908 4.973,-6.269 0.653,-0.491 2.211,-1.376 3.027,-1.296 1.938,0.184 4.947,5.415 5.837,6.701 1.589,2.298 4.065,5.838 4.323,8.43 C 5.212,1.968 2.877,4.059 1.27,5.07 m -19.814,4.49 -0.049,-0.048 c 0.308,-0.918 0.4,-2.051 1.731,-1.946 -0.021,1.214 -0.637,1.83 -1.21,2.492 -0.017,0.035 -0.035,0.065 -0.056,0.109 -0.072,0.149 -0.161,0.336 -0.303,0.522 -0.112,0.148 -0.325,0.178 -0.474,0.065 -0.149,-0.114 -0.178,-0.325 -0.064,-0.475 0.1,-0.132 0.169,-0.276 0.23,-0.404 0.054,-0.113 0.102,-0.208 0.152,-0.278 0.012,-0.016 0.029,-0.023 0.043,-0.037 M 5.837,6.484 C 7.833,6.506 8.504,7.854 9.512,8.863 8.099,9.021 5.956,8.313 5.837,6.484 M -9.08,16.43 c -0.352,-1.131 -0.352,-3.624 0,-4.757 1.517,0.358 1.46,4.366 0,4.757 M 1.513,10.988 c 0.104,0 0.207,0.044 0.278,0.13 0.327,0.397 0.593,0.827 0.85,1.242 0.249,0.407 0.485,0.788 0.772,1.139 0.127,0.153 0.104,0.38 -0.049,0.507 C 3.209,14.132 2.982,14.111 2.856,13.956 2.539,13.569 2.278,13.146 2.026,12.738 1.771,12.325 1.531,11.935 1.236,11.579 1.108,11.427 1.129,11.199 1.283,11.071 1.351,11.017 1.432,10.988 1.513,10.988" style="fill:#000000;fill-opacity:1;fill-rule:nonzero;stroke:none" transform="matrix(1.3333333,0,0,-1.3333333,669.41147,935.3724)" clip-path="url(#clipPath26)" />
  </g>
</svg>
