<?xml version="1.0" encoding="UTF-8" standalone="no"?>
<!-- Created with Inkscape (http://www.inkscape.org/) -->
<svg version="1.1" id="svg1" width="35.765747" height="36.908386" viewBox="0 0 35.765748 36.908385"    xmlns="http://www.w3.org/2000/svg" xmlns:svg="http://www.w3.org/2000/svg">
  <defs id="defs1">
    <clipPath clipPathUnits="userSpaceOnUse" id="clipPath252">
      <path d="M 0,770 H 1300 V 0 H 0 Z" transform="translate(-932.52542,-490.61911)" id="path252" />
    </clipPath>
  </defs>
  <g id="layer-MC0"   transform="translate(-1215.2669,-355.1256)">
    <path id="path251" d="m 0,0 c -0.065,-0.814 0.186,-1.945 -0.24,-2.399 -3.817,0.503 -8.519,0.121 -12.72,0.24 -0.597,0.363 0.147,2.067 -0.48,2.399 C -9.896,0.185 -4.573,-0.172 0,0 m -13.44,2.4 c -0.847,-0.491 -0.504,-0.755 -0.96,-1.439 -0.676,-1.014 -0.817,-3.154 0,-4.32 C -9.502,-3.747 -3.377,-4.168 1.68,-3.6 1.296,-1.629 1.833,0.002 1.439,1.681 -2.728,2.713 -8.818,1.822 -13.44,2.4 M 4.319,-5.76 C 2.986,-10.127 -5.88,-13.846 -12,-11.52 c -4.25,1.616 -8.173,9.866 -5.76,15.6 0.371,0.883 1.204,1.447 1.92,2.4 0.76,1.012 1.229,2.239 1.68,2.641 1.248,1.109 5.019,2.408 6.479,2.4 8.079,-0.048 13.319,-6.688 12,-17.281 M 4.08,6.961 c -1.53,3.224 -7.897,6.629 -12.72,6 -2.57,-0.336 -4.527,-1.475 -6.24,-2.4 -0.798,-0.432 -1.662,-0.53 -2.16,-0.96 -0.459,-0.397 -1.308,-1.798 -1.92,-2.88 -0.56,-0.987 -1.469,-2.41 -1.68,-3.12 -0.989,-3.326 -0.13,-8.273 0.959,-10.8 0.972,-2.254 4.648,-6.293 6.721,-6.96 2.351,-0.757 5.818,-0.457 7.92,-0.24 5.45,0.563 9.607,3.903 10.56,8.639 C 6.226,-2.249 5.174,4.656 4.08,6.961" style="fill:#000000;fill-opacity:1;fill-rule:evenodd;stroke:none" transform="matrix(1.3333333,0,0,-1.3333333,1243.3672,372.50787)" clip-path="url(#clipPath252)" />
  </g>
</svg>
