<?xml version="1.0" encoding="UTF-8" standalone="no"?>
<!-- Created with Inkscape (http://www.inkscape.org/) -->
<svg version="1.1" id="svg1" width="37.398926" height="37.506908" viewBox="0 0 37.398927 37.506907"    xmlns="http://www.w3.org/2000/svg" xmlns:svg="http://www.w3.org/2000/svg">
  <defs id="defs1">
    <clipPath clipPathUnits="userSpaceOnUse" id="clipPath326">
      <path d="M 0,770 H 1300 V 0 H 0 Z" transform="translate(-1114.1289,-628.46092)" id="path326" />
    </clipPath>
  </defs>
  <g id="layer-MC0"   transform="translate(-1458.7758,-169.24851)">
    <path id="path325" d="m 0,0 h -2.405 c -0.739,0.438 -1.443,1.013 -2.245,1.765 -0.673,0.629 -1.257,1.615 -2.086,1.923 -2.801,1.046 -6.393,-1.051 -6.896,-3.527 -0.766,1.434 -0.921,3.142 -1.443,4.651 -0.532,1.535 -1.244,2.932 -1.605,4.491 1.496,1.352 2.233,2.905 3.85,3.527 1.756,0.677 3.68,0.512 4.81,-0.32 0.993,-0.728 1.401,-2.324 2.567,-3.367 C -4.125,7.954 -1.428,7.157 0.643,7.378 2.597,7.586 3.885,8.7 5.935,9.143 4.311,5.74 3.047,1.979 0,0 m -11.227,-11.066 c -0.734,-0.174 -0.908,-0.91 -1.923,-0.802 -0.78,2.722 -1.893,5.882 -2.727,9.302 -0.562,2.305 -1.026,5.15 -1.603,7.538 -0.339,1.398 -0.993,2.35 -0.162,3.529 0.136,0.028 0.152,-0.063 0.162,-0.161 0.997,-2.788 1.765,-5.654 2.405,-8.661 0.807,-3.8 2.526,-7.42 3.848,-10.745 M 7.699,11.548 C 6.674,11.85 5.787,10.934 4.973,10.585 2.219,9.41 -1.279,8.071 -4.01,10.104 c -1.344,1.001 -1.791,2.674 -2.886,3.529 -1.388,1.083 -4.868,1.282 -6.736,0.48 -1.931,-0.827 -2.718,-3.153 -5.453,-3.848 -0.134,-0.669 -0.768,-0.836 -0.962,-1.445 1.631,-6.431 3.361,-13.853 5.292,-19.725 0.281,-0.856 0.22,-2.046 1.123,-2.567 1.037,-0.34 2.22,0.982 2.887,1.284 0.366,0.165 1.249,-0.291 1.122,0.48 0.063,1.263 -0.988,2.265 -1.442,3.529 -0.757,2.105 -1.46,4.351 -2.247,6.415 2.201,0.227 1.953,4.233 5.615,3.529 1.657,-1.124 2.488,-3.086 4.33,-3.69 4.937,-1.616 7.364,3.121 8.98,6.416 1.257,2.561 3.126,5.447 2.086,7.057" style="fill:#000000;fill-opacity:1;fill-rule:evenodd;stroke:none" transform="matrix(1.3333333,0,0,-1.3333333,1485.5052,188.7188)" clip-path="url(#clipPath326)" />
  </g>
</svg>
