<?xml version="1.0" encoding="UTF-8"?>
<svg id="web_icons_3-4_Image" xmlns="http://www.w3.org/2000/svg" viewBox="0 0 14.34 32">
  <g id="bookmark">
    <path fill-rule="evenodd" d="M10.98.06C7.35-.34,2.6,1.24,1.38,3.42c-.22,6.24-.95,16.64-1.2,23.76-.04,1.3-.75,4.27.96,4.56,2.12.36,3.22-6,4.8-6.24.37,1.42,1.39,1.9,2.4,3.36.72,1.04,1.29,3.39,2.88,3.12,1.82-.31,1.91-4.61,2.16-7.2.67-6.97.44-16.38.96-22.8-.68-.92-1.88-1.76-3.36-1.92ZM11.22,28.62c-1.62-.36-3.29-5.97-5.28-6-1.85-.03-2.08,2.74-3.36,4.08-.33-7.13.93-14.75.96-22.32.64-.16.88-.72,1.2-1.2,2.15-.33,4.66-.3,6.96-.48.01,8.61.81,17.3-.48,25.92Z" />
  </g>
</svg>
