<?xml version="1.0" encoding="UTF-8" standalone="no"?>
<!-- Created with Inkscape (http://www.inkscape.org/) -->
<svg version="1.1" id="svg1" width="34.665771" height="36.024658" viewBox="0 0 34.665772 36.024657"    xmlns="http://www.w3.org/2000/svg" xmlns:svg="http://www.w3.org/2000/svg">
  <defs id="defs1">
    <clipPath clipPathUnits="userSpaceOnUse" id="clipPath126">
      <path d="M 0,770 H 1300 V 0 H 0 Z" transform="translate(-1116.5527,-269.06051)" id="path126" />
    </clipPath>
  </defs>
  <g id="layer-MC0"   transform="translate(-1460.1436,-636.17782)">
    <path id="path125" d="M 0,0 C -0.898,1.821 -4.411,3.413 -3.205,5.609 -1.373,4.415 -0.262,2.498 1.069,0.802 0.4,0.849 0.232,0.391 0,0 m -5.075,8.016 c -2.527,-3.854 -10.909,-2.421 -13.087,2.403 -1.413,3.126 0.337,7.866 3.472,10.416 5.339,0.794 12.98,-7.689 9.615,-12.819 m 3.206,-0.269 c 0.118,1.704 0.463,3.277 0.267,4.809 -0.499,3.869 -5.742,10.028 -8.816,10.95 -0.945,0.283 -2.25,0.35 -3.204,0.267 -4.149,-2.862 -8.458,-6.777 -7.745,-13.088 0.711,-6.312 8.144,-9.785 15.224,-7.479 1.84,-0.856 3.571,-6.199 5.609,-6.41 1.112,-0.114 1.932,0.961 2.938,1.87 0.92,0.83 2.301,1.566 2.137,2.937 -2.863,1.323 -4.589,3.782 -6.41,6.144" style="fill:#000000;fill-opacity:1;fill-rule:evenodd;stroke:none" transform="matrix(1.3333333,0,0,-1.3333333,1488.7369,667.91933)" clip-path="url(#clipPath126)" />
  </g>
</svg>
