<?xml version="1.0" encoding="UTF-8"?>
<svg id="web_icons_3-4_Image" xmlns="http://www.w3.org/2000/svg" viewBox="0 0 23.36 23.69">
  <g id="arrow_up">
    <path fill-rule="evenodd" d="M21.44,9.6c-2.09-2.46-3.66-4.31-6-6.48C13.95,1.73,12.58.04,10.88,0c-2.79,2.73-5.9,6.38-8.64,9.12-.87.87-2.65,1.65-2.16,3.12.75.93,2.66.7,4.32.72.45,2.99-.42,7.13.96,9.12.39.56,1.45.48,1.68,1.2,3.48-.4,6.46.84,9.36.24,1.07-2.77.96-6.72,1.44-10.08,1.64.55,3.9-.22,5.52-.48.02-1.32-1.08-2.37-1.92-3.36ZM15.68,12c-.22,3.38-.49,6.71-.96,9.84h-7.44c-.85-2.91-.8-6.72-.96-10.32-.63-.65-2.05-.51-3.12-.72,2.89-2.55,5.26-5.62,7.92-8.4,3.41,2.27,6.67,5.97,8.64,8.88-1.52-.52-3.27-.15-4.08.72Z" />
  </g>
</svg>
