<?xml version="1.0" encoding="UTF-8" standalone="no"?>
<!-- Created with Inkscape (http://www.inkscape.org/) -->
<svg version="1.1" id="svg1" width="31.150757" height="31.586365" viewBox="0 0 31.150758 31.586363"    xmlns="http://www.w3.org/2000/svg" xmlns:svg="http://www.w3.org/2000/svg">
  <defs id="defs1">
    <clipPath clipPathUnits="userSpaceOnUse" id="clipPath146">
      <path d="M 0,770 H 1300 V 0 H 0 Z" transform="translate(-501.29692,-279.2031)" id="path146" />
    </clipPath>
  </defs>
  <g id="layer-MC0"   transform="translate(-647.48563,-638.39585)">
    <path id="path145" d="M 0,0 C -0.223,-3.377 -0.487,-6.715 -0.96,-9.84 H -8.4 c -0.853,2.906 -0.803,6.717 -0.96,10.319 -0.63,0.65 -2.053,0.507 -3.12,0.72 2.891,2.549 5.261,5.619 7.92,8.401 C -1.149,7.33 2.105,3.625 4.08,0.719 2.564,1.24 0.812,0.873 0,0 m 5.76,2.398 c -2.093,2.461 -3.659,4.307 -6,6.481 -1.494,1.389 -2.865,3.08 -4.56,3.121 -2.794,-2.727 -5.902,-6.383 -8.64,-9.121 -0.867,-0.867 -2.646,-1.65 -2.16,-3.119 0.755,-0.926 2.658,-0.703 4.32,-0.721 0.454,-2.994 -0.424,-7.131 0.96,-9.119 0.39,-0.561 1.453,-0.481 1.68,-1.201 3.482,0.398 6.456,-0.844 9.36,-0.24 1.067,2.773 0.961,6.718 1.44,10.08 1.643,-0.551 3.904,0.218 5.52,0.48 C 7.704,0.361 6.601,1.41 5.76,2.398" style="fill:#000000;fill-opacity:1;fill-rule:evenodd;stroke:none" transform="matrix(1.3333333,0,0,-1.3333333,668.39587,654.39587)" clip-path="url(#clipPath146)" />
  </g>
</svg>
