<?xml version="1.0" encoding="UTF-8" standalone="no"?>
<!-- Created with Inkscape (http://www.inkscape.org/) -->

<svg
   version="1.1"
   id="svg1"
   width="44.762878"
   height="42.666405"
   viewBox="0 0 44.76288 42.666403"
   xmlns="http://www.w3.org/2000/svg"
   xmlns:svg="http://www.w3.org/2000/svg">
  <defs
     id="defs1">
    <clipPath
       clipPathUnits="userSpaceOnUse"
       id="clipPath392">
      <path
         d="M 0,770 H 1300 V 0 H 0 Z"
         transform="translate(-325.05181,-705.00492)"
         id="path392" />
    </clipPath>
  </defs>
  <g
     id="layer-MC0"
     transform="translate(-396.35552,-71.637309)">
    <path
       id="path391"
       d="m 0,0 c -2.938,-0.708 -6.771,0.529 -9.919,-0.165 v 4.96 c 1.876,-0.502 5.516,-0.609 8.101,-0.497 0.895,0.04 1.752,0.327 2.479,0.167 C 2.106,4.144 2.431,2.794 3.473,2.314 2.416,1.984 1.258,0.304 0,0 m 0.497,6.778 c -1.747,0.12 -4.176,-0.506 -6.284,-0.494 -1.065,0.004 -2.196,0.375 -3.14,0.329 -0.965,-0.048 -1.768,-0.556 -2.48,-0.661 -0.518,-2.01 -0.473,-5.805 -0.165,-7.605 1.409,-0.845 3.335,-0.495 5.124,-0.495 1.865,0 4.105,-0.348 5.787,0 1.06,0.217 2.423,1.229 3.472,1.818 1.254,0.703 2.717,1.435 2.976,2.48 -1.148,1.776 -2.688,4.451 -5.29,4.628 m -14.55,-24.468 c 0.002,-0.305 0.638,-1.266 -0.33,-1.157 -1.124,-0.536 -0.837,1.402 -0.827,1.984 0.017,0.948 0.261,2.022 0.331,2.975 0.152,2.086 -0.158,4.363 -0.331,6.779 -0.228,3.187 -0.208,6.804 0,9.92 0.069,1.028 0.415,2.015 0.496,2.977 0.096,1.139 -0.191,2.687 0.166,3.47 -0.047,0.267 0.156,0.285 0.165,0.497 0.192,0.027 0.294,-0.037 0.33,-0.166 0.557,-4.583 0.459,-9.718 0.166,-14.548 -0.24,-3.951 -0.181,-8.169 -0.166,-12.731 m -1.818,15.707 c -1.955,-0.306 -4.675,0.155 -6.282,-0.496 -1.061,0.481 -1.684,1.402 -2.646,1.983 1.348,0.973 3.081,1.944 4.63,2.81 0.759,0.427 2.811,-0.611 4.298,-0.164 z m 0.826,13.061 c -0.869,-1.612 -0.415,-4.545 -0.826,-6.613 -3.724,0.569 -5.167,-0.471 -7.274,-1.654 -1.212,-0.68 -2.368,-1.234 -3.142,-2.149 -0.745,0.085 -1.31,-0.013 -1.487,-0.497 -0.145,-0.976 1.157,-1.817 1.983,-2.479 0.774,-0.622 1.88,-1.752 2.646,-1.984 0.519,-0.158 1.311,0.073 1.983,0 1.616,-0.176 3.265,-0.639 5.125,-0.166 0.312,-5.659 -0.493,-11.075 -0.165,-16.202 1.06,-0.127 2.989,-0.127 3.803,0.497 0.042,10.295 0.103,21.619 -0.165,31.247 -0.608,0.357 -1.825,0.121 -2.481,0"
       style="fill:#000000;fill-opacity:1;fill-rule:nonzero;stroke:none"
       transform="matrix(1.3333333,0,0,-1.3333333,433.4024,86.660133)"
       clip-path="url(#clipPath392)" />
  </g>
</svg>
