<?xml version="1.0" encoding="UTF-8" standalone="no"?>
<!-- Created with Inkscape (http://www.inkscape.org/) -->

<svg
   version="1.1"
   id="svg1"
   width="45.959717"
   height="46.35791"
   viewBox="0 0 45.959718 46.357908"
   xmlns="http://www.w3.org/2000/svg"
   xmlns:svg="http://www.w3.org/2000/svg">
  <defs
     id="defs1">
    <clipPath
       clipPathUnits="userSpaceOnUse"
       id="clipPath68">
      <path
         d="M 0,770 H 1300 V 0 H 0 Z"
         transform="translate(-445.63481,-140.89361)"
         id="path68" />
    </clipPath>
  </defs>
  <g
     id="layer-MC0"
     transform="translate(-558.63945,-818.0839)">
    <path
       id="path67"
       d="m 0,0 c -0.871,-0.734 0.55,-1.165 0.472,-1.888 -2.016,-3.54 -5.011,-8.149 -10.143,-7.784 -2.558,0.183 -5.043,1.737 -6.827,3.501 -0.579,0.572 -1.716,1.617 -1.696,2.469 0.014,0.633 0.877,1.691 -0.385,1.64 -0.816,-0.032 -1.509,-1.167 -1.909,-1.778 -0.286,-0.437 -0.946,-1.715 -0.832,-2.193 0.088,-0.369 0.668,-0.728 1.039,-0.644 0.505,0.113 0.576,0.766 1.175,0.78 2.984,-5.97 12.07,-8.562 17.219,-3.303 1.463,1.495 1.932,3.312 3.303,5.189 0.883,0.019 0.712,-1.016 1.886,-0.707 C 4.426,-2.731 2.154,0.56 0,0 m -13.215,2.617 c -0.08,0.35 -0.314,0.596 -0.619,0.75 -0.62,0.314 -1.533,0.251 -2.047,-0.088 -1.161,-0.765 -1.158,-2.457 -0.384,-3.484 1.744,-0.761 3.432,1.138 3.05,2.822 M -3.004,1.318 c 0.629,0.332 0.569,1.146 0.58,1.75 0.007,0.419 -0.098,0.768 -0.273,1.038 -0.666,1.036 -2.342,0.94 -2.632,-0.663 -0.275,-1.525 0.725,-2.969 2.325,-2.125 m 6.07,-11.617 c -2.177,-3.428 -6.804,-7.644 -12.737,-6.955 -6.147,0.713 -13.193,7.753 -14.624,13.215 -2.202,8.394 5.462,16 12.265,16.924 2.182,0.296 5.163,0.119 6.841,-0.465 C -2.521,11.492 1.787,7.929 3.538,5.002 6.435,0.16 6.185,-5.391 3.066,-10.299 M 6.84,3.842 C 6.275,5.179 5.114,6.634 4.01,8.016 c -2.181,2.729 -3.218,3.877 -6.368,5.564 -2.964,1.586 -7.996,2.852 -12.739,1.159 -6.058,-2.163 -11.595,-8.157 -11.558,-15.302 0.024,-4.533 1.702,-8.573 4.01,-11.359 1.112,-1.342 3.646,-3.67 6.133,-5.1 2.114,-1.217 5.039,-1.738 7.725,-2.203 h 0.708 c 4.639,0.373 6.821,1.134 9.495,4.057 2.056,2.25 4.309,4.582 5.424,7.883 1.227,3.631 1.37,7.89 0,11.127"
       style="fill:#000000;fill-opacity:1;fill-rule:evenodd;stroke:none"
       transform="matrix(1.3333333,0,0,-1.3333333,594.17973,838.80853)"
       clip-path="url(#clipPath68)" />
  </g>
</svg>
