<?xml version="1.0" encoding="UTF-8" standalone="no"?>
<!-- Created with Inkscape (http://www.inkscape.org/) -->

<svg
   version="1.1"
   id="svg1"
   width="42.666763"
   height="37.6875"
   viewBox="0 0 42.666764 37.687498"
   xmlns="http://www.w3.org/2000/svg"
   xmlns:svg="http://www.w3.org/2000/svg">
  <defs
     id="defs1">
    <clipPath
       clipPathUnits="userSpaceOnUse"
       id="clipPath160">
      <path
         d="M 0,770 H 1300 V 0 H 0 Z"
         transform="translate(-67.840301,-276.28031)"
         id="path160" />
    </clipPath>
  </defs>
  <g
     id="layer-MC0"
     transform="translate(-71.638968,-635.3455)">
    <path
       id="path159"
       d="m 0,0 c -2.544,3.15 -6.736,4.655 -7.437,9.647 h 0.402 C -2.2,7.046 2.263,4.072 4.02,-1.608 2.708,-1.044 1.521,-0.355 0,0 m -3.417,-4.422 c -2.147,-0.357 -1.976,-2.785 -4.02,-3.417 -1.332,2.151 -3.054,3.915 -4.221,6.231 0.95,1.194 2.671,1.618 3.617,2.813 -0.133,1.206 0.183,1.963 0.202,3.017 2.132,-1.891 4.195,-4.368 6.432,-6.233 0.425,-0.353 1.715,-0.431 2.412,-0.802 0.885,-0.472 1.489,-1.658 2.613,-1.81 -2.402,-1.491 -5.081,0.527 -7.035,0.201 M 7.034,-2.21 C 6.414,-0.15 6.14,0.448 5.226,2.211 3.615,5.315 2.111,6.801 -0.603,8.844 c -1.618,1.219 -3.496,2.786 -4.623,3.216 -1.717,0.654 -3.449,0.554 -4.02,-0.403 0.002,-3.179 -0.564,-5.862 -0.603,-9.446 -1.054,-0.854 -3.957,-1.929 -4.22,-3.216 -0.41,-2.002 2.274,-4.733 3.818,-6.834 0.973,-1.323 1.432,-2.7 2.412,-3.216 2.528,0.622 3.321,2.976 5.226,4.221 2.472,-1.114 7.406,-0.598 10.05,0 0.008,0.822 0.378,2.254 0.201,3.417 -0.055,0.359 -0.467,0.756 -0.604,1.207 m 8.241,6.832 c -1.476,0.077 -3.973,-0.034 -4.421,-1.004 0.081,-2.3 6.799,-1.791 7.035,0 -0.325,0.726 -1.459,0.945 -2.614,1.004 M 0.603,11.456 c 1.141,1.674 2.674,2.954 2.814,5.629 -2.824,1.017 -5.893,-4.441 -2.814,-5.629 m 12.261,2.413 c -0.468,0.103 -0.941,0.299 -1.408,0.201 -1.085,-0.231 -3.528,-2.684 -3.417,-3.819 2.096,-0.795 4.489,1.338 4.825,3.618"
       style="fill:#000000;fill-opacity:1;fill-rule:nonzero;stroke:none"
       transform="matrix(1.3333333,0,0,-1.3333333,90.453733,658.29293)"
       clip-path="url(#clipPath160)" />
  </g>
</svg>
