<?xml version="1.0" encoding="UTF-8" standalone="no"?>
<!-- Created with Inkscape (http://www.inkscape.org/) -->

<svg
   version="1.1"
   id="svg1"
   width="36.807587"
   height="36.568008"
   viewBox="0 0 36.807588 36.568007"
   xmlns="http://www.w3.org/2000/svg"
   xmlns:svg="http://www.w3.org/2000/svg">
  <defs
     id="defs1">
    <clipPath
       clipPathUnits="userSpaceOnUse"
       id="clipPath356">
      <path
         d="M 0,770 H 1300 V 0 H 0 Z"
         transform="translate(-196.39161,-628.04152)"
         id="path356" />
    </clipPath>
  </defs>
  <g
     id="layer-MC0"
     transform="translate(-237.45057,-168.32067)">
    <path
       id="path355"
       d="m 0,0 c 0.475,-3.534 1.621,-6.397 2.887,-9.142 -0.688,0.047 -1.303,0.644 -1.925,1.122 -1.246,0.958 -2.353,1.804 -3.849,2.888 -0.68,0.493 -1.524,1.278 -2.085,1.283 -0.833,0.007 -2.778,-1.716 -3.529,-2.246 -1.329,-0.935 -2.191,-1.676 -3.367,-2.405 0.546,2.394 1.56,4.32 2.085,6.736 1.755,1.931 -0.35,3.018 -1.925,4.33 -1.072,0.894 -2.105,1.629 -2.727,2.085 2.063,0.239 5.695,-0.851 7.699,-0.16 0.218,0.702 0.019,0.824 -0.16,1.444 1.083,2.016 1.932,4.268 2.886,6.415 1.347,-2.236 1.164,-5.999 3.048,-7.699 C 1.641,4.582 3.745,4.013 6.255,3.85 4,2.736 2.494,0.874 0,0 m -0.161,6.255 c -0.845,2.283 -1.61,5.028 -2.245,7.218 -0.229,0.789 -0.319,1.734 -0.962,2.245 H -3.85 c -1.879,-2.824 -2.896,-6.512 -4.49,-9.623 -3.648,-0.162 -6.704,1.085 -9.944,0.801 -0.187,-1.112 1.005,-1.569 1.604,-2.084 2.056,-1.768 3.862,-3.506 5.934,-5.132 -0.669,-1.678 -1.319,-3.486 -1.924,-5.292 -0.598,-1.784 -1.379,-3.643 -1.443,-5.454 2.135,-0.365 3.509,1.379 4.81,2.405 1.452,1.145 2.94,2.099 4.491,3.049 3.183,-1.951 5.575,-4.691 9.302,-6.096 0.834,0.716 0.29,1.806 0,2.566 C 3.532,-6.63 2.159,-4.03 1.764,-1.122 3.351,0.638 5.529,1.755 7.537,2.887 8.148,3.231 9.17,3.664 9.302,4.491 6.813,5.218 3.738,6.438 -0.161,6.255"
       style="fill:#000000;fill-opacity:1;fill-rule:evenodd;stroke:none"
       transform="matrix(1.3333333,0,0,-1.3333333,261.85547,189.278)"
       clip-path="url(#clipPath356)" />
  </g>
</svg>
