<?xml version="1.0" encoding="UTF-8" standalone="no"?>
<!-- Created with Inkscape (http://www.inkscape.org/) -->
<svg version="1.1" id="svg1" width="36.720001" height="35.64035" viewBox="0 0 36.720002 35.640349"    xmlns="http://www.w3.org/2000/svg" xmlns:svg="http://www.w3.org/2000/svg">
  <defs id="defs1">
    <clipPath clipPathUnits="userSpaceOnUse" id="clipPath274">
      <path d="M 0,770 H 1300 V 0 H 0 Z" transform="translate(-262.68651,-483.89161)" id="path274" />
    </clipPath>
  </defs>
  <g id="layer-MC0"   transform="translate(-318.93554,-355.75878)">
    <path id="path273" d="m 0,0 c -1.266,-2.08 -4.317,-3.922 -6.96,-4.32 -3.241,-0.489 -7.678,0.082 -10.32,2.16 -3.029,2.381 -5.145,10.717 -2.4,15.119 1.242,1.993 3.918,3.512 6.96,4.08 2.858,0.534 6.954,0.068 8.88,-0.959 C 0.408,13.813 3.671,6.031 0,0 m 3.6,9.84 c -1.443,5.91 -7.584,10.127 -15.12,9.359 -3.005,-0.306 -5.357,-1.272 -7.2,-2.639 -1.966,-1.459 -2.316,-2.273 -3.36,-4.321 -0.514,-1.007 -1.039,-1.762 -1.2,-2.639 -0.834,-4.547 1.045,-8.246 2.64,-10.801 2.321,-3.717 6.036,-6.297 11.28,-6.239 C -1.125,-7.35 5.944,0.234 3.6,9.84 M -8.16,5.52 c 0.545,2.064 -1.337,1.703 -1.68,2.879 1.016,1.934 0.443,4.052 -0.422,5.872 -0.017,0.096 -0.037,0.193 -0.047,0.29 -0.023,0.205 -0.215,0.357 -0.412,0.33 -0.205,-0.024 -0.352,-0.207 -0.33,-0.412 0.012,-0.111 0.036,-0.222 0.056,-0.333 l -0.045,0.013 c -0.799,-1.997 -0.377,-4.603 0.24,-6.479 -0.453,-0.668 -1.441,-0.799 -1.2,-2.16 0.536,-1.003 1.352,-1.234 2.64,-0.96 1.883,-1.319 3.432,-4.247 6,-4.081 -0.979,2.302 -2.708,3.851 -4.8,5.041" style="fill:#000000;fill-opacity:1;fill-rule:nonzero;stroke:none" transform="matrix(1.3333333,0,0,-1.3333333,350.24867,381.47787)" clip-path="url(#clipPath274)"    />
  </g>
</svg>
