<?xml version="1.0" encoding="UTF-8"?>
<svg id="web_icons_3-4_Image" xmlns="http://www.w3.org/2000/svg" viewBox="0 0 26.2 32">
  <g id="clipboard_check">
    <path d="M15.66,7.83c.92-.03,2.63,1.07,3.05-.28-1.27-2.03-5.54.07-7.48-.83-.24.88.44.86.55,1.39,1.04.38,2.38-.23,3.88-.28ZM14.27,5.89c.6-.51,1.41-.81,1.11-2.22-.89-1.12-2.96-.49-2.49,1.38.49.25.81.67,1.38.83ZM12.61,22.51c-1.07-.87-1.49-2.39-2.49-3.32-1.63.12-2.39,1.12-3.6,1.66.58,1.41,1.58,2.72,2.49,3.88.91,1.15,1.97,2.35,3.32,3.05,1.66-1.77,3.37-3.81,4.99-5.82,1.51-1.87,3.98-3.89,3.6-6.65-3.66,1.51-5.4,4.94-8.31,7.2ZM25.08,3.68c-1.76-.38-4.45.72-6.92.55-.06-1.33.27-3.04-.55-3.6-1.65-.48-5.44-1.13-6.92,0-.56,1.11-.22,3.1-.83,4.16-2.97-.85-5.98-.31-9.42-.28C.11,13.56-.19,22.38.15,30.82c4.79,2.15,10.96.74,16.62.55,3.19-.11,6.41.21,9.14-.55.38-6.25,0-19.94,0-19.94l.09-.28c.04-.12.02-.25-.04-.35.07-.15.15-.39.22-.76.03-2.11.09-4.7-1.11-5.82ZM10.95,6.17c1.06-.6,1.21-2.11,1.11-3.88.94-.44,3.49-.44,4.43,0v3.33c.85.05,2.23.31,3.88.28v2.77c-4.46,0-8.7.32-12.46.28.16-1.18-.2-1.83-.28-2.77.91.71,2.21-.04,3.32,0ZM24.52,29.16c-6.89.55-14.55.91-22.16.55-.3-7.84.04-17.74,1.11-23.82h1.39c1.52.6.79,3.46,1.94,4.43,3.23.22,11.46.42,15.23-.28.75-1.72-1.31-5.36,3.05.55l-.09.28c-.07.23.05.48.28.55.02,0,.03,0,.05,0-.13,1.06-.41,4.77-.79,17.72Z" />
  </g>
</svg>
