<?xml version="1.0" encoding="UTF-8"?>
<svg id="web_icons_3-4_Image" xmlns="http://www.w3.org/2000/svg" viewBox="0 0 23.84 32">
  <g id="idea_lightbulb">
    <path d="M14.38,25.43c-1.28-1.3-4.86.05-5.11,1.14,1.48.15,5.11.82,5.11-1.14ZM0,4.62c-.02,1.5,1.34,2.53,2.65,2.08C2.6,5.27,1.39,4.09,0,4.62ZM12.11,27.32c-.82.24-2.23-.09-2.27.95.09.8,1.59.96,2.27.57-.49.91-1.37.58-1.32,1.7.09,2.13,5,2.09,3.78-1.13-.34-.42-1.05-.46-1.51-.76.6-.15,1.39-.12,1.89-.38.29-.59.12-1.05-.19-1.51-1.32-.23-1.93.36-2.65.57ZM8.51,3.67c.53-1.37-.02-4.62-1.51-3.41.4,1.24,0,3.27,1.51,3.41ZM21.38,9.16c.69.78,2.53.2,2.46-.95-.88-.31-2.48-.22-2.46.95ZM17.78,2.54c.21.04.29.21.38.38,1.35-.16,2.07-.96,2.27-2.27-1.22-.35-2.54.53-2.65,1.89ZM2.65,10.67c-1,3.83,1.23,5.66,2.65,8.13,1.1,1.92,1.73,4.02,3.03,5.3,1.82.54,4.1.34,6.05,0,.41-.79,1.13-1.2,1.51-1.7,1.42-1.86,2.59-4.37,2.84-7,.29-3.09-.08-5.95-1.32-7.76-3.31-4.8-13.53-1.66-14.76,3.03ZM11.92,19.37c-.46-.27-.79-1.34-.57-1.7.55.21.61.9.57,1.7ZM13.81,21.26c-.12.82-.31,1.59-1.13,1.7-.65-1.16.42-3.69.38-5.49,0-.82.89-.75,1.13-1.32-.66-.66-1.04-.2-1.89,0-.11-.58-.05-1.34-.76-1.32-.43.26-.07,1.32-.19,1.89-1.25-.39-1.4.67-2.27,1.13.03.54.79.35,1.32.38.35,1.6.53,3.38.95,4.92-.71-.15-.9.23-1.51.19-.81-2-1.55-3.76-2.65-5.68-1.1-1.91-3.87-4.78-2.08-7.38.84-1.21,5.85-3.75,8.7-2.84,4.25,1.36,3.15,10.59,0,13.81Z" />
  </g>
</svg>
