<?xml version="1.0" encoding="UTF-8" standalone="no"?>
<!-- Created with Inkscape (http://www.inkscape.org/) -->
<svg version="1.1" id="svg1" width="41.29303" height="36.810608" viewBox="0 0 41.293031 36.810606"    xmlns="http://www.w3.org/2000/svg" xmlns:svg="http://www.w3.org/2000/svg">
  <defs id="defs1">
    <clipPath clipPathUnits="userSpaceOnUse" id="clipPath232">
      <path d="M 0,770 H 1300 V 0 H 0 Z" transform="translate(-314.08301,-419.30371)" id="path232" />
    </clipPath>
  </defs>
  <g id="layer-MC0"   transform="translate(-398.09017,-448.71151)">
    <path id="path231" d="M 0,0 C -0.162,2.135 -1.045,5.645 0,7.439 0.388,7.508 0.413,7.213 0.72,7.199 0.744,4.537 0.847,1.793 0,0 m -2.64,6.48 c -0.6,-2.103 0.539,-6.785 0.96,-8.4 0.232,-0.893 0.199,-2.324 1.2,-2.16 1.423,-0.065 2.689,3.344 3.12,6 0.203,1.25 0.363,2.955 0.24,3.84 -0.449,3.224 -4.621,3.873 -5.52,0.72 m -11.52,-18 c -0.123,1.174 0.711,2.147 1.2,3.12 1.551,3.086 3.033,6.273 4.8,9.361 C -5.816,5.055 -2.374,8.754 0,12.721 0.204,12.764 0.227,12.627 0.24,12.48 2.563,9.504 5.091,4.678 6.96,0.961 8.916,-2.93 11.091,-6.652 12.72,-10.561 4.757,-11.164 -5.409,-12.279 -14.16,-11.52 M 13.2,-6 c -1.053,1.773 -2.048,3.482 -2.88,4.801 -2.229,3.529 -4.625,6.98 -6,9.599 -1.242,2.366 -1.946,5.873 -4.8,5.76 -4.824,-5.578 -9.157,-12.336 -12.48,-19.199 -1.047,-2.164 -3.141,-4.524 -2.4,-7.201 1.146,-1.778 3.659,-1.059 6,-0.959 3.767,0.158 8.182,-0.305 12,-0.24 2.575,0.043 4.603,0.703 6.48,0.718 2.489,0.022 5.597,-0.795 6.24,1.201 0.509,1.581 -1.159,3.834 -2.16,5.52 M -0.96,-9.119 c -0.1,0.448 -0.659,0.438 -0.487,1.16 0.168,0.226 0.464,0.33 0.895,0.455 0.113,0.032 0.216,0.071 0.324,0.108 L -0.24,-7.439 C 0.09,-7.43 0.287,-7.553 0.48,-7.68 0.667,-8.826 -0.021,-9.098 -0.96,-9.119 m 0.48,2.398 0.033,-0.025 C -0.545,-6.779 -0.64,-6.814 -0.742,-6.844 -1.231,-6.982 -1.812,-7.177 -2.105,-7.75 L -2.16,-7.68 H -2.4 c -0.159,-1.279 0.102,-2.138 0.72,-2.64 4.389,-1.319 4.155,5.095 1.2,3.599" style="fill:#000000;fill-opacity:1;fill-rule:nonzero;stroke:none" transform="matrix(1.3333333,0,0,-1.3333333,418.77733,467.59507)" clip-path="url(#clipPath232)" />
  </g>
</svg>
