<?xml version="1.0" encoding="UTF-8"?>
<svg id="web_icons_3-4_Image" xmlns="http://www.w3.org/2000/svg" viewBox="0 0 20.4 32">
  <g id="mouse">
    <path d="M7.41,9.19c-2.01.46-3.12,1.85-2.21,3.74.46.95,2.95,1.85,4.25,1.53,1.13-.27,2.31-2.04,1.87-3.74-.35-1.34-1.91-1.99-3.91-1.53ZM8.94,12.76c-1.03-.22-2.19-.3-2.38-1.36.2-.03.14-.31.17-.51,1.2.05,1.91-.36,2.72.17.14.88-.14,1.34-.51,1.7ZM20.34,23.31c-.19-1.16-1.27-2.81-1.87-4.42-.62-1.66-1.24-3.11-1.87-4.42-2.18-4.52-3.99-10.39-11.06-9.02-.33-.93-.94-1.42-1.53-2.55C3.47,1.87,2.42-1.58,1.28.85c-.69,1.48,1.96,3.94,2.21,5.44C1.09,7.96-.39,11.31.09,14.97c.21,1.56,1.18,3.28,1.87,4.93,1.65,3.93,3.59,8.64,5.79,11.57,5.08,1.48,10.3-.33,12.25-3.57-.49-1.34.67-2.59.34-4.59ZM17.45,26.88c-.44.47-1.26.57-2.04,1.02-.75.43-1.23,1.07-1.7,1.19-2.07.52-4.23-.41-6.13-.68-.63-1.1-.8-2.3-1.36-3.57-.92-2.09-2.02-4.11-3.06-6.64-.47-1.15-1.2-2.37-1.36-3.4-.47-2.98.73-5.44,2.21-7.32,1.75-.84,4.98-.92,6.81.34.92.63,1.82,2.45,2.72,4.08,1.61,2.92,2.52,4.87,3.74,8.34.51,1.45,1.24,3.04,1.19,4.08-.03.62-.48,1.97-1.02,2.55Z" />
  </g>
</svg>
