<?xml version="1.0" encoding="UTF-8" standalone="no"?>
<!-- Created with Inkscape (http://www.inkscape.org/) -->
<svg version="1.1" id="svg1" width="10.621216" height="37.437317" viewBox="0 0 10.621216 37.437315"    xmlns="http://www.w3.org/2000/svg" xmlns:svg="http://www.w3.org/2000/svg">
  <defs id="defs1">
    <clipPath clipPathUnits="userSpaceOnUse" id="clipPath124">
      <path d="M 0,770 H 1300 V 0 H 0 Z" transform="translate(-1157.8233,-277.7832)" id="path124" />
    </clipPath>
  </defs>
  <g id="layer-MC0"   transform="translate(-1553.607,-635.47061)">
    <path id="path123" d="M 0,0 C -0.534,0.33 -0.706,1.814 -0.24,2.4 0.867,2.227 1.707,1.787 1.681,0.48 1.278,0.162 0.876,-0.154 0,0 M -1.68,4.561 C -2.201,4.176 -2.828,1.523 -2.64,0.48 -2.171,-2.105 2.181,-2.93 3.601,-0.238 4.364,3.551 0.682,6.309 -1.68,4.561 M 11.76,1.441 C 11.306,1.016 10.175,1.266 9.36,1.201 9.268,2.434 11.13,3.092 11.76,2.16 Z M 7.2,3.361 C 6.839,2.41 7.104,1.357 7.2,0 c 1.34,-1.668 5.599,-2.377 6.96,-0.238 0.799,1.252 0.534,3.156 0,4.799 C 11.824,6.139 8.173,5.918 7.2,3.361 M 22.08,0 C 20.877,-0.082 20.437,0.598 20.16,1.441 20.097,2.43 22.021,2.285 22.561,1.922 22.677,1.004 22.492,0.389 22.08,0 M 25.2,3.361 C 24.563,4.807 21.979,5.576 19.92,4.801 18.307,4.346 17.785,2.193 18,0.721 c 0.671,-4.602 8.781,-4.455 7.2,2.64" style="fill:#000000;fill-opacity:1;fill-rule:nonzero;stroke:none" transform="matrix(0,-1.3333333,-1.3333333,0,1561.0173,669.34252)" clip-path="url(#clipPath124)" />
  </g>
</svg>
