<?xml version="1.0" encoding="UTF-8" standalone="no"?>
<!-- Created with Inkscape (http://www.inkscape.org/) -->

<svg
   version="1.1"
   id="svg1"
   width="38.715942"
   height="42.666992"
   viewBox="0 0 38.715943 42.66699"
   xmlns="http://www.w3.org/2000/svg"
   xmlns:svg="http://www.w3.org/2000/svg">
  <defs
     id="defs1">
    <clipPath
       clipPathUnits="userSpaceOnUse"
       id="clipPath4">
      <path
         d="M 0,770 H 1300 V 0 H 0 Z"
         transform="translate(-1176.0723,-65.396504)"
         id="path4" />
    </clipPath>
  </defs>
  <g
     id="layer-MC0"
     transform="translate(-1539.559,-913.46562)">
    <path
       id="path3"
       d="M 0,0 C -0.476,-0.884 0.518,-0.701 0.2,-1.404 -0.34,-2.599 -3.091,-2.479 -4.414,-3.21 -5.473,-0.101 -1.85,2.016 -3.009,5.817 -3.48,5.881 -3.763,6.134 -4.414,6.018 -5.432,4.83 -5.545,2.736 -6.62,1.604 c -0.915,1.092 -0.943,3.069 -2.007,4.012 -3.144,-0.617 0.011,-5.605 -0.602,-7.421 -2.024,-0.435 -3.759,0.297 -5.014,1.203 -0.82,1.804 0.533,2.862 0.803,4.213 -0.725,1.001 -1.58,-0.119 -2.409,-0.201 -3.383,-0.014 -4.631,5.641 -1.804,7.222 h 2.005 c 1.123,1.865 1.321,4.445 3.009,5.817 2.66,2.163 7.441,0.252 10.231,-1.404 0.221,-0.848 0.494,-1.645 0.803,-2.407 1.34,0.131 0.753,2.187 1.203,3.21 0.964,0.373 1.905,0.77 3.41,0.601 0.539,-0.644 0.91,-1.043 1.004,-1.804 C 4.313,12.174 1.527,10.633 1.203,8.425 1.315,8.137 1.516,7.937 1.805,7.823 3.323,7.843 3.803,8.901 4.412,9.83 7.991,6.023 3.516,1.054 0,0 m 7.621,7.021 c -0.122,1.798 -1.152,2.868 -2.206,4.212 1.515,3.405 0.169,7.161 -3.209,7.222 -1.425,0.026 -2.617,-0.603 -3.61,-1.604 -2.766,1.965 -8.689,3.916 -12.036,1.604 -1.961,-1.353 -2.463,-3.429 -3.21,-5.817 -7.276,0.522 -5.494,-12.184 0.601,-10.832 -1.078,-4.422 3.344,-5.94 7.422,-5.216 0.082,-1.697 0.6,-2.915 0.402,-4.213 -0.274,-1.798 -2.203,-2.589 -2.207,-4.413 0.78,-0.894 2.165,-0.052 3.008,0.201 0.743,-0.061 0.723,-0.883 1.806,-0.603 0.659,0.345 0.936,1.071 0.804,2.208 0.999,-0.539 1.71,-1.365 3.41,-1.205 1.935,2.261 -0.909,2.254 -1.806,3.812 -0.773,1.345 -0.307,2.134 -0.804,3.611 3.55,-0.862 6.121,0.96 6.822,3.611 2.197,1.255 5.042,4.075 4.813,7.422"
       style="fill:#000000;fill-opacity:1;fill-rule:evenodd;stroke:none"
       transform="matrix(1.3333333,0,0,-1.3333333,1568.0964,939.47133)"
       clip-path="url(#clipPath4)" />
  </g>
</svg>
