<?xml version="1.0" encoding="UTF-8"?>
<svg id="web_icons_3-4_Image" xmlns="http://www.w3.org/2000/svg" viewBox="0 0 32 21.11">
  <g id="upload_to_cloud">
    <path d="M29.63,11.13c1.45-2.78.31-6.64-2.43-7.3-2.82-.68-5.72.95-6.33,3.65,1.95.09,2.86-2.38,5.11-2.19,1.64.14,2.65,1.59,2.68,3.16.02,1.21-1.03,2.07-.97,3.41.68.71,1.37-.09,1.95.73,2.05,5.85-5.3,6.33-10.71,6.33v-2.92c1.65-.28,2.93-.44,3.16-1.7.15-.81-.64-1.33-1.46-2.43-1.27-1.7-3.17-4.33-5.36-4.14-1.62,2.11-3.48,3.98-5.11,6.09-.44.77-2.01.42-1.7,1.95.63,1.33,2.4.14,4.14.49v2.92h0c-.09.02-.18.04-.27.06l.02-.06c-1.99-.73-4.3.21-6.57,0-1.33-1.13-3.21-1.06-3.65-3.17-.47-2.27.95-4.94,2.92-4.87,1.56.05,1.11,1.5,2.92,1.7,1.3-1.28.04-2.21.24-3.65.32-2.22,2.99-5.66,5.11-6.57,1.16-.5,3.77-.65,4.87-.24,1.49.55,2.25,2.07,3.41,2.19.02-4.3-5.02-5.22-8.52-4.14-3.6,1.12-5.83,6.08-7.06,9.01h-2.44C1.13,10.85-.9,13.89.41,17.22c.76,1.92,3.28,2.09,3.89,3.9,2.73-.28,7.58.3,8.25-1.4.03,0,.06-.02.08-.02.39.31.8.6,1.65.45.48-1.46-.27-3.34,0-5.36-.87-.64-1.54.04-2.43-.49,1.36-1.65,3.1-2.91,4.14-4.87,1.76.83,2.55,2.64,3.65,4.14-3.38-.05-2.24,4.42-2.43,7.55,2.66-1.02,6.86-.25,9.74-.73,4.3-.72,7.41-7.06,2.68-9.25Z" />
  </g>
</svg>
