<?xml version="1.0" encoding="UTF-8" standalone="no"?>
<!-- Created with Inkscape (http://www.inkscape.org/) -->
<svg version="1.1" id="svg1" width="37.49292" height="41.486404" viewBox="0 0 37.492921 41.486402"    xmlns="http://www.w3.org/2000/svg" xmlns:svg="http://www.w3.org/2000/svg">
  <defs id="defs1">
    <clipPath clipPathUnits="userSpaceOnUse" id="clipPath374">
      <path d="M 0,770 H 1300 V 0 H 0 Z" transform="translate(-875.6533,-687.60162)" id="path374" />
    </clipPath>
  </defs>
  <g id="layer-MC0"   transform="translate(-1132.9622,-72.22746)">
    <path id="path373" d="m 0,0 c -7.669,-0.725 -15.78,-1.008 -23.897,-1.283 -0.293,1.426 -0.192,2.716 0.16,3.528 0.242,0.559 1.101,1.609 1.764,2.085 2.245,1.611 7.198,1.594 7.86,4.651 0.207,0.959 0.097,2.541 -0.162,3.849 -0.215,1.092 -0.967,2.116 -1.121,3.368 -0.571,4.607 0.875,9.98 4.97,10.105 4.821,0.147 3.398,-8.231 2.086,-11.227 -1.143,-2.611 -2.459,-4.544 -1.764,-8.34 0.585,-1.3 2.264,-0.787 3.528,-0.962 C -3.882,5.398 -0.459,4.309 0,2.084 0.127,1.463 -0.092,0.825 0,0 m -17.321,17.803 c -0.288,-0.021 -0.339,0.195 -0.642,0.16 -0.021,0.287 0.195,0.338 0.16,0.641 0.335,0.068 0.425,-0.109 0.641,-0.16 -0.123,-0.143 -0.172,-0.363 -0.159,-0.641 m 12.188,1.443 c 0.453,0.132 0.416,-0.226 0.802,-0.161 0,-0.748 -0.194,-1.302 -0.962,-1.282 -0.086,0.62 0.286,0.783 0.16,1.443 M -8.34,7.858 c -0.066,1.004 -0.095,2.044 -0.321,2.888 1.251,1.367 2.161,3.078 2.726,5.132 2.188,0.029 2.609,2.414 2.246,4.49 -0.166,0.368 -1.145,-0.075 -1.284,0.321 -0.215,3.457 -1.015,6.395 -3.528,7.217 -4.772,1.563 -8.054,-2.846 -8.499,-7.217 -1.879,-0.081 -2.063,-2.898 -1.444,-4.491 0.276,-0.418 1.281,-0.108 1.444,-0.641 0.166,-2.61 2.196,-3.857 1.442,-6.897 -4.55,-2.191 -11.321,-2.997 -10.263,-10.264 0.392,-0.307 0.845,-0.65 1.443,-0.321 -0.137,-0.67 0.434,-0.635 0.641,-0.962 8.796,0.025 17.471,0.17 25.18,1.283 3.058,6.602 -3.909,9.383 -9.783,9.462" style="fill:#000000;fill-opacity:1;fill-rule:evenodd;stroke:none" transform="matrix(1.3333333,0,0,-1.3333333,1167.5377,109.86453)" clip-path="url(#clipPath374)" />
  </g>
</svg>
