<?xml version="1.0" encoding="UTF-8"?>
<svg id="web_icons_3-4_Image" xmlns="http://www.w3.org/2000/svg" viewBox="0 0 28.12 31.11">
  <g id="contact_user">
    <path fill-rule="evenodd" d="M17.59,20.37c-.07-1-.09-2.04-.32-2.89,1.25-1.37,2.16-3.08,2.73-5.13,2.19-.03,2.61-2.41,2.25-4.49-.17-.37-1.14.08-1.28-.32-.21-3.46-1.02-6.39-3.53-7.22-4.77-1.56-8.05,2.85-8.5,7.22-1.88.08-2.06,2.9-1.44,4.49.28.42,1.28.11,1.44.64.17,2.61,2.2,3.86,1.44,6.9C5.82,21.76-.95,22.56.11,29.83c.39.31.85.65,1.44.32-.14.67.43.63.64.96,8.8-.02,17.47-.17,25.18-1.28,3.06-6.6-3.91-9.38-9.78-9.46ZM20.8,8.98c.45-.13.42.23.8.16,0,.75-.19,1.3-.96,1.28-.09-.62.29-.78.16-1.44ZM8.61,10.43c-.29.02-.34-.2-.64-.16-.02-.29.2-.34.16-.64.34-.07.42.11.64.16-.12.14-.17.36-.16.64ZM25.93,28.23c-7.67.72-15.78,1.01-23.9,1.28-.29-1.43-.19-2.72.16-3.53.24-.56,1.1-1.61,1.76-2.08,2.25-1.61,7.2-1.59,7.86-4.65.21-.96.1-2.54-.16-3.85-.21-1.09-.97-2.12-1.12-3.37-.57-4.61.88-9.98,4.97-10.1,4.82-.15,3.4,8.23,2.09,11.23-1.14,2.61-2.46,4.54-1.76,8.34.59,1.3,2.26.79,3.53.96,2.69.38,6.12,1.47,6.58,3.69.13.62-.09,1.26,0,2.08Z" />
  </g>
</svg>
