<?xml version="1.0" encoding="UTF-8" standalone="no"?>
<!-- Created with Inkscape (http://www.inkscape.org/) -->
<svg version="1.1" id="svg1" width="42.667603" height="39.32193" viewBox="0 0 42.667604 39.321928"    xmlns="http://www.w3.org/2000/svg" xmlns:svg="http://www.w3.org/2000/svg">
  <defs id="defs1">
    <clipPath clipPathUnits="userSpaceOnUse" id="clipPath202">
      <path d="M 0,770 H 1300 V 0 H 0 Z" transform="translate(-1241.6992,-407.92871)" id="path202" />
    </clipPath>
  </defs>
  <g id="layer-MC0"   transform="translate(-1619.0271,-447.45583)">
    <path id="path201" d="m 0,0 c -7.269,-0.341 -14.896,-0.324 -21.826,-1.005 -1.7,4.239 -2.544,9.333 -3.513,14.302 9.248,-0.371 18.786,-0.446 28.35,-0.502 C 2.977,7.561 1.548,3.72 0,0 m -1.254,20.069 c -0.155,-1.578 -1.582,-4.24 0,-5.267 1.566,-0.229 1.239,1.435 1.254,2.761 1.207,-0.305 2.227,-2.118 2.258,-2.761 -7.946,-0.474 -15.65,0.149 -23.832,-0.251 0.011,2.27 -0.578,3.938 -0.754,6.02 7.04,-0.785 14.337,-1.241 21.074,-0.502 m -19.514,3.769 c 6.187,0.399 12.001,1.172 18.51,1.25 -0.182,-1.015 -0.782,-1.997 -0.251,-3.012 -5.821,-0.484 -12.69,-0.289 -18.282,0.248 0.121,0.463 0.196,0.985 0.023,1.514 M 4.266,16.307 c -1.486,0.855 -1.998,2.684 -3.513,3.511 0.361,0.56 0.63,1.211 0.502,2.258 -0.552,0.468 -1.87,-0.012 -2.007,0.251 -0.084,1.589 0.468,2.544 0.501,4.015 -7.154,0.626 -14.135,-1.08 -21.323,-1.254 -0.191,-0.168 -0.526,-1.306 -0.049,-1.481 0.12,-0.306 0.073,-0.654 -0.041,-1.096 -0.121,-0.078 -0.194,-0.204 -0.162,-0.435 -0.677,-0.925 -1.997,0.339 -2.258,-1.002 -0.674,-1.102 0.451,-2.553 0.251,-4.014 -5.909,-1.789 -3.054,-6.623 -1.756,-12.543 0.55,-2.506 0.778,-4.48 1.505,-6.022 0.377,-0.375 1.057,-0.449 1.254,-1.004 4.04,0.38 7.767,-0.509 11.541,-0.503 4.004,0.009 8.154,1.578 12.042,0.251 2.49,4.951 4.635,11.307 3.513,19.068 M -3.261,6.272 c 0.718,1.088 1.056,4.92 -0.754,5.018 -1.659,0.072 -0.983,-2.194 -1.505,-3.263 -3.421,-0.006 -6.433,-0.422 -10.034,-0.251 0.075,1.248 0.045,2.387 -0.754,2.761 -1.88,0.051 -1.224,-2.946 -1.002,-4.265 3.453,-1.886 10.201,-0.782 14.049,0" style="fill:#000000;fill-opacity:1;fill-rule:nonzero;stroke:none" transform="matrix(1.3333333,0,0,-1.3333333,1655.5989,482.76173)" clip-path="url(#clipPath202)" />
  </g>
</svg>
